<?xml version="1.0" encoding="UTF-8" standalone="no"?>
<!-- Created with Inkscape (http://www.inkscape.org/) -->

<svg
   width="400"
   height="200"
   viewBox="0 0 400 200"
   version="1.1"
   id="svg520"
   inkscape:version="1.2.2 (b0a8486541, 2022-12-01)"
   sodipodi:docname="lohngehalt.svg"
   xmlns:inkscape="http://www.inkscape.org/namespaces/inkscape"
   xmlns:sodipodi="http://sodipodi.sourceforge.net/DTD/sodipodi-0.dtd"
   xmlns="http://www.w3.org/2000/svg"
   xmlns:svg="http://www.w3.org/2000/svg">
  <sodipodi:namedview
     id="namedview522"
     pagecolor="#ffffff"
     bordercolor="#000000"
     borderopacity="0.25"
     inkscape:showpageshadow="2"
     inkscape:pageopacity="0.0"
     inkscape:pagecheckerboard="0"
     inkscape:deskcolor="#d1d1d1"
     inkscape:document-units="mm"
     showgrid="false"
     inkscape:zoom="1"
     inkscape:cx="-188"
     inkscape:cy="268"
     inkscape:window-width="1920"
     inkscape:window-height="1176"
     inkscape:window-x="1920"
     inkscape:window-y="0"
     inkscape:window-maximized="1"
     inkscape:current-layer="layer1" />
  <defs
     id="defs517">
    <marker
       orient="auto"
       refY="0"
       refX="0"
       id="Arrow2Sstart"
       style="overflow:visible">
      <path
         id="path3920"
         style="fill-rule:evenodd;stroke-width:0.625;stroke-linejoin:round"
         d="M 8.7185878,4.0337352 -2.2072895,0.01601326 8.7185884,-4.0017078 c -1.7454984,2.3720609 -1.7354408,5.6174519 -6e-7,8.035443 z"
         transform="matrix(0.3,0,0,0.3,-0.69,0)" />
    </marker>
  </defs>
  <g
     inkscape:label="lohngehalt"
     inkscape:groupmode="layer"
     id="layer1">
    <g
       transform="matrix(0.11520158,-0.05468926,0.05476387,0.11504465,22.623295,56.91989)"
       id="layer1-45"
       style="display:inline">
      <path
         d="m 514.29,450.93 c 0,46.55 -37.736,84.286 -84.286,84.286 -46.55,0 -84.286,-37.736 -84.286,-84.286 0,-46.55 37.736,-84.286 84.286,-84.286 46.55,0 84.286,37.736 84.286,84.286 z"
         transform="translate(61.429,148.57)"
         id="path3757-8"
         style="fill:#ffffff;stroke:#2c3a4e;stroke-width:20;stroke-linecap:round;stroke-miterlimit:0" />
      <rect
         width="505.70999"
         height="202.86"
         rx="0"
         ry="0"
         x="157.14"
         y="626.65002"
         id="rect2985-8"
         style="fill:#ffffff;stroke:#2c3a4e;stroke-width:20;stroke-linecap:square" />
      <path
         d="m 277.14,330.93 c 0,35.504 -28.782,64.286 -64.286,64.286 -35.504,0 -64.286,-28.782 -64.286,-64.286 0,-35.504 28.782,-64.286 64.286,-64.286 35.504,0 64.286,28.782 64.286,64.286 z"
         transform="translate(118.57,194)"
         id="path3755-9"
         style="fill:#ffffff;stroke:#2c3a4e;stroke-width:17;stroke-linecap:round;stroke-miterlimit:0" />
      <path
         d="m 442.86,272.36 c 0,26.825 -21.746,48.571 -48.571,48.571 -26.825,0 -48.571,-21.746 -48.571,-48.571 0,-26.825 21.746,-48.571 48.571,-48.571 26.825,0 48.571,21.746 48.571,48.571 z"
         transform="translate(56,174)"
         id="path3759-1"
         style="fill:#ffffff;stroke:#2c3a4e;stroke-width:14;stroke-linecap:round;stroke-miterlimit:0" />
      <text
         x="397.14285"
         y="797.21936"
         id="text3761-3"
         xml:space="preserve"
         style="font-size:12px;line-height:0%;font-family:sans-serif;text-align:center;letter-spacing:0px;word-spacing:0px;text-anchor:middle;fill:#000000"><tspan
           x="397.14285"
           y="797.21936"
           id="tspan3763-2"
           style="font-weight:bold;font-size:190px;font-family:FreeSans;fill:#2c3a4e">€</tspan></text>
    </g>
    <path
       d="m 185.45759,583.29832 c 306,-153 306,-153 306,-153"
       id="path14685-9"
       style="display:inline;fill:none;stroke:#000000;stroke-width:3;stroke-linecap:butt;stroke-linejoin:miter;stroke-miterlimit:4;stroke-dasharray:none;stroke-opacity:1;marker-start:url(#Arrow2Sstart);marker-end:none"
       inkscape:label="path14685-9"
       transform="matrix(1.1810723,0,0,1.1794634,-196.67671,-496.95052)">
      <title
         id="title1795">path14685-9</title>
    </path>
    <text
       xml:space="preserve"
       style="display:inline;font-size:32px;fill:#000000"
       x="138.29189"
       y="581.89734"
       id="text604"
       transform="matrix(1.1011048,-0.42661833,0.42720028,1.0996048,-196.67671,-496.95052)"><tspan
         id="tspan602"
         x="138.29189"
         y="581.89734">300</tspan></text>
  </g>
</svg>
