<?xml version="1.0" encoding="UTF-8" standalone="no"?>
<!-- Created with Inkscape (http://www.inkscape.org/) -->

<svg
   width="400"
   height="200"
   viewBox="0 0 400 200"
   version="1.1"
   id="svg520"
   inkscape:version="1.2.2 (b0a8486541, 2022-12-01)"
   sodipodi:docname="rhb.svg"
   xmlns:inkscape="http://www.inkscape.org/namespaces/inkscape"
   xmlns:sodipodi="http://sodipodi.sourceforge.net/DTD/sodipodi-0.dtd"
   xmlns="http://www.w3.org/2000/svg"
   xmlns:svg="http://www.w3.org/2000/svg">
  <sodipodi:namedview
     id="namedview522"
     pagecolor="#ffffff"
     bordercolor="#000000"
     borderopacity="0.25"
     inkscape:showpageshadow="2"
     inkscape:pageopacity="0.0"
     inkscape:pagecheckerboard="0"
     inkscape:deskcolor="#d1d1d1"
     inkscape:document-units="mm"
     showgrid="false"
     inkscape:zoom="1"
     inkscape:cx="-188"
     inkscape:cy="268"
     inkscape:window-width="1920"
     inkscape:window-height="1176"
     inkscape:window-x="1920"
     inkscape:window-y="0"
     inkscape:window-maximized="1"
     inkscape:current-layer="layer1" />
  <defs
     id="defs517">
    <marker
       orient="auto"
       refY="0"
       refX="0"
       id="Arrow2Send-9"
       style="overflow:visible">
      <path
         id="path3923-2"
         style="fill-rule:evenodd;stroke-width:0.625;stroke-linejoin:round"
         d="M 8.7185878,4.0337352 -2.2072895,0.01601326 8.7185884,-4.0017078 c -1.7454984,2.3720609 -1.7354408,5.6174519 -6e-7,8.035443 z"
         transform="matrix(-0.3,0,0,-0.3,0.69,0)" />
    </marker>
  </defs>
  <g
     inkscape:label="rhb"
     inkscape:groupmode="layer"
     id="layer1">
    <g
       id="g1509"
       style="display:inline"
       transform="matrix(1.3475053,0,0,1.2520525,-251.8761,-254.7453)">
      <g
         transform="matrix(0.07939978,0,0,0.07580701,310.20753,286.61794)"
         id="g3367"
         style="display:inline">
        <path
           d="m 130.28125,382.9375 c -10.33683,0 -19.55592,32.46794 -25.75,52.15625 h 49.5 v -17.625 h -14.0625 v -31.375 h 14.0625 v -3.15625 z m 85.125,0 c 0.0394,1.05184 0.0609,2.10193 0.0937,3.15625 h 17.21875 v 31.375 h -16.90625 c -0.0233,6.09925 -0.0579,12.07165 -0.0625,17.625 h 63.65625 c -0.10644,-5.829 -0.10464,-11.72034 -0.0625,-17.625 h -20.0625 -0.21875 v -31.375 h 0.21875 18.34375 c 2.5e-4,-1.05444 0.005,-2.10773 0,-3.15625 H 215.4062 Z m 121.40625,0 v 3.15625 h 15 0.25 v 31.375 h -0.25 -17 v 17.625 h 66.125 c -0.12739,-5.75292 -0.11475,-11.67803 -0.0625,-17.625 h -22.25 -0.21875 -0.0312 v -31.375 h 0.0312 0.21875 18.625 c 0.005,-1.0551 0.0312,-2.11712 0.0312,-3.15625 h -60.46875 z m 119.65625,0 v 3.15625 h 14.6875 0.25 v 31.375 h -0.25 H 456.5 v 17.625 h 61.5625 c -0.0115,-5.86344 -0.005,-11.74408 0,-17.625 h -20.34375 v -31.375 h 18.375 c 4.4e-4,-1.049 0,-2.10858 0,-3.15625 z m 122.84375,0 c 0.017,1.04841 0.0168,2.10577 0.0312,3.15625 h 11.15625 v 31.375 H 579.5312 c 0.002,5.87214 0,11.73968 0,17.625 h 51.09375 c -6.19403,-19.68831 -15.41317,-52.15625 -25.75,-52.15625 h -25.5625 z M 36.90625,419.90625 v 120.875 l 12.65625,-16.75 h 1.34375 v -4.96875 h 22.25 v 4.96875 h 1.78125 l 12.6875,16.75 v -51.75 H 96.5 c -0.02597,1.9629 -0.0625,4.10511 -0.0625,5.59375 v 133.84375 c 0,9.31876 0.522794,18.28931 1.46875,26.75 H 88.6875 v -71.8125 L 75.5,606.65625 H 49.09375 l -13.1875,-23.25 V 751.1875 l 13.1875,-23.25 H 75.5 l 13.1875,23.25 V 679.375 h 13.4375 c 6.05835,24.62228 16.37707,40.78125 28.15625,40.78125 h 203.625 v -90.3125 h -0.9375 c -6.74103,0 -12.15625,-5.44647 -12.15625,-12.1875 v -6.46875 c 0,-6.74103 5.41522,-12.1875 12.15625,-12.1875 H 333.75 v -18.3125 c 0,0 -6.25,-7.29977 -6.25,-11.71875 0,-2.01595 1.30358,-4.60178 2.71875,-6.84375 0.29074,-2.04111 1.50971,-4.50729 2.75,-6.5625 l -2.75,-6.15625 h -17.5625 -95.8125 c -30.20587,0 -62.5625,-32.38789 -62.5625,-62.59375 V 455.25 h -56.3125 c -0.429926,3.75357 -0.746882,9.9012 -1,16.40625 H 87.625 v -51.75 l -12.6875,16.75 h -25.375 z m 14,19.15625 h 22.25 v 5.0625 h -22.25 z m 0,8 h 22.25 v 5.0625 h -22.25 z m 0,8 h 22.25 v 5.0625 h -22.25 z m 167.25,0.1875 c 5.23736,18.12645 18.98318,35.71875 40.34375,35.71875 h 22.34375 c -0.86152,-1.62242 -1.4375,-4.10552 -1.4375,-8.15625 V 455.25 Z m 119.125,0 c 4.65116,15.03326 13.72555,31.08138 30.59375,33.15625 16.86616,-2.07462 25.91927,-18.12649 30.5625,-33.15625 z m 119.21875,0 v 27.5625 c 0,4.08187 -0.65382,6.55668 -1.59375,8.15625 h 9.9375 10.46875 c 21.36057,0 35.10638,-17.5923 40.34375,-35.71875 z m 123.03125,0 v 31.5625 c 0,30.20586 -32.35663,62.59375 -62.5625,62.59375 H 473.25 437.6875 423.25 397.71875 l -2.5625,5.6875 c 1.51656,2.43459 3.125,5.53901 3.125,7.875 0,0.0196 2.3e-4,0.0428 0,0.0625 1.18368,2.01509 2.1875,4.18832 2.1875,5.9375 0,4.41898 -6.28125,11.71875 -6.28125,11.71875 V 599 h 6.65625 C 407.58478,599 413,604.44647 413,611.1875 v 6.46875 c 0,6.74103 -5.41522,12.1875 -12.15625,12.1875 h -7.03125 v 90.3125 H 604.875 c 18.73722,0 33.84375,-40.89076 33.84375,-91.6875 V 494.625 c 0,-9.54721 -0.54143,-30.73317 -1.53125,-39.375 z m -528.625,7.8125 h 22.25 v 5.0625 h -22.25 z M 23,465.78125 c -2.494408,0 -4.5,1.21335 -4.5,2.75 v 2.875 c 0,1.53666 2.005592,2.75 4.5,2.75 h 5.09375 c 2.494407,0 4.5,-1.21334 4.5,-2.75 v -2.875 c 0,-1.53665 -2.005593,-2.75 -4.5,-2.75 z m 577.3125,0.25 11.09375,0.0312 5.5,9.625 -5.59375,9.5625 -11.09375,-0.0312 -5.5,-9.625 z M 50.90625,471.0625 h 22.25 v 5.0625 h -22.25 z m 63.34375,1.25 11.09375,0.0625 5.5,9.625 -5.59375,9.5625 -11.0625,-0.0312 -5.5,-9.625 5.5625,-9.59375 z M 23,476.15625 c -2.494408,0 -4.5,1.24461 -4.5,2.78125 v 2.84375 c 0,1.53665 2.005592,2.75 4.5,2.75 h 5.09375 c 2.494407,0 4.5,-1.21335 4.5,-2.75 v -2.84375 c 0,-1.53664 -2.005593,-2.78125 -4.5,-2.78125 z m 27.90625,2.90625 h 22.25 v 5.0625 h -22.25 z M 23,486.53125 c -2.494408,0 -4.5,1.2446 -4.5,2.78125 v 2.84375 c 0,1.53665 2.005592,2.75 4.5,2.75 h 5.09375 c 2.494407,0 4.5,-1.21335 4.5,-2.75 v -2.84375 c 0,-1.53664 -2.005593,-2.78125 -4.5,-2.78125 z m 27.90625,0.53125 h 22.25 v 5.0625 h -22.25 z m 0,8 h 22.25 v 5.0625 h -22.25 z m 0,8 h 22.25 v 5.0625 h -22.25 z m 0,8 h 22.25 v 5.0625 h -22.25 z m 0,16 v 5.0625 h 22.25 v -5.0625 z m 63.34375,5.25 11.09375,0.0625 5.5,9.625 -5.59375,9.5625 -11.0625,-0.0312 -5.5,-9.625 5.5625,-9.59375 z m -63.34375,2.75 v 5.0625 h 22.25 v -5.0625 z m 0,8 v 5.0625 h 22.25 v -5.0625 z m 0,8 v 5.0625 h 22.25 v -5.0625 z m 0,8 v 5.0625 h 22.25 v -5.0625 z m 236.1875,5.03125 11.09375,0.0625 5.5,9.625 -5.59375,9.5625 L 287,583.3125 l -5.5,-9.625 z m -236.1875,2.96875 v 5.0625 h 22.25 v -5.0625 z m 0,8 v 5.0625 h 22.25 v -5.0625 z m 0,8 v 5.0625 h 22.25 v -5.0625 z m 558.46875,3.3125 11.09375,0.0312 5.5,9.625 -5.59375,9.5625 -11.09375,-0.0312 -5.5,-9.625 z m -558.46875,4.6875 v 5.0625 h 22.25 v -5.0625 z m 63.34375,1.25 11.09375,0.0625 5.5,9.625 -5.59375,9.5625 -11.0625,-0.0312 -5.5,-9.625 5.5625,-9.59375 z m -63.34375,6.75 v 5.0625 h 22.25 v -5.0625 z m 0,8 h 22.25 v 5.0625 h -22.25 z m 0,8 h 22.25 v 5.0625 h -22.25 z m 406,4.28125 11.0625,0.0312 5.5,9.625 -5.59375,9.5625 -11.0625,-0.0312 -5.5,-9.625 z m -406,3.71875 h 22.25 v 5.0625 h -22.25 z m 0,8 h 22.25 v 5.0625 h -22.25 z m 0,8 h 22.25 v 5.0625 h -22.25 z m 142.21875,2.53125 11.09375,0.0312 5.5,9.625 -5.59375,9.59375 -11.0625,-0.0625 -5.5,-9.625 5.5625,-9.5625 z M 50.90625,647.0625 h 22.25 v 5.0625 h -22.25 z M 22.8125,652.75 c -2.381348,0 -4.3125,1.21335 -4.3125,2.75 v 2.84375 c 0,1.53666 1.931152,2.78125 4.3125,2.78125 h 4.84375 c 2.381348,0 4.3125,-1.24459 4.3125,-2.78125 V 655.5 c 0,-1.53665 -1.931152,-2.75 -4.3125,-2.75 z m 28.09375,2.3125 h 22.25 v 5.0625 h -22.25 z m 0,8 h 22.25 v 5.0625 h -22.25 z M 22.8125,663.125 c -2.381348,0 -4.3125,1.21336 -4.3125,2.75 v 2.84375 c 0,1.53665 1.931152,2.78125 4.3125,2.78125 h 4.84375 c 2.381348,0 4.3125,-1.2446 4.3125,-2.78125 V 665.875 c 0,-1.53664 -1.931152,-2.75 -4.3125,-2.75 z m 28.09375,7.9375 h 22.25 v 5.0625 h -22.25 z M 22.8125,673.5 c -2.381348,0 -4.3125,1.24461 -4.3125,2.78125 v 2.8125 c 0,1.53665 1.931152,2.78125 4.3125,2.78125 h 4.84375 c 2.381348,0 4.3125,-1.2446 4.3125,-2.78125 v -2.8125 c 0,-1.53664 -1.931152,-2.78125 -4.3125,-2.78125 z m 28.09375,5.5625 h 22.25 v 5.0625 h -22.25 z M 538.5,683.625 l 11.0625,0.0312 5.5,9.625 -5.5625,9.59375 -11.09375,-0.0625 -5.5,-9.625 5.59375,-9.5625 z m -487.59375,3.4375 h 22.25 v 5.0625 h -22.25 z m 0,8 h 22.25 v 5.0625 h -22.25 z m 0,8 h 22.25 v 5.0625 h -22.25 z m 0,8 h 22.25 v 5.0625 h -22.25 z m 0,8 h 22.25 v 5.0625 h -22.25 z"
           id="rect3065"
           style="fill:#000000;fill-opacity:1;stroke:none" />
        <path
           d="m 113.1875,284.96875 c -18.789128,0 -33.90625,15.14837 -33.90625,33.9375 v 19.5625 c 0,18.78913 15.117122,33.9375 33.90625,33.9375 h 506.59375 c 18.78913,0 33.90625,-15.14837 33.90625,-33.9375 v -19.5625 c 0,-18.78913 -15.11712,-33.9375 -33.90625,-33.9375 z m 7.0625,5.59375 h 492.46875 c 18.78913,0 33.90625,15.11712 33.90625,33.90625 v 8.4375 c 0,18.78913 -15.11712,33.90625 -33.90625,33.90625 H 120.25 c -18.78913,0 -33.90625,-15.11712 -33.90625,-33.90625 v -8.4375 c 0,-18.78913 15.11712,-33.90625 33.90625,-33.90625 z m 1.90625,5.96875 c -15.43607,0 -27.875,12.43893 -27.875,27.875 v 8.5625 c 0,15.43607 12.43893,27.875 27.875,27.875 h 12.5 V 353.25 H 117.8125 v -5.125 h 16.84375 V 341.25 H 111.0625 v -5.125 h 23.59375 v -4.875 h -30.375 v -5.125 h 30.375 V 321.25 H 111.0625 v -5.125 h 23.59375 V 309.25 H 117.8125 v -5.125 h 16.84375 v -7.59375 z m 25.375,0 V 304.125 H 585.4375 v -7.59375 z m 450.78125,0 v 7.59375 h 16.84375 v 5.125 H 598.3125 v 6.875 h 22.375 v 5.125 h -22.375 v 4.875 h 30.375 v 5.125 h -30.375 v 4.875 h 22.375 v 5.125 h -22.375 v 6.875 h 16.84375 v 5.125 H 598.3125 v 7.59375 h 12.5 c 15.43607,0 27.875,-12.43893 27.875,-27.875 v -8.5625 c 0,-15.43607 -12.43893,-27.875 -27.875,-27.875 z M 147.53125,309.25 v 38.875 H 585.4375 V 309.25 Z M 191.5,312 l 11.28125,13.84375 -6.34375,16.6875 -17.625,2.84375 -11.28125,-13.84375 6.34375,-16.6875 z m 120.875,0 11.28125,13.84375 -6.34375,16.6875 -17.625,2.84375 -11.28125,-13.84375 6.34375,-16.6875 z m 120.875,0 11.28125,13.84375 -6.34375,16.6875 -17.625,2.84375 -11.28125,-13.84375 6.34375,-16.6875 z m 120.875,0 11.3125,13.84375 -6.34375,16.6875 -17.625,2.84375 -11.28125,-13.84375 6.3125,-16.6875 z m -368.96875,4.5 c -6.73469,0 -12.21875,5.4528 -12.21875,12.1875 0,6.73469 5.48406,12.1875 12.21875,12.1875 6.73469,0 12.1875,-5.45281 12.1875,-12.1875 0,-6.7347 -5.45281,-12.1875 -12.1875,-12.1875 z m 120.875,0 c -6.73469,0 -12.1875,5.4528 -12.1875,12.1875 0,6.73469 5.45281,12.1875 12.1875,12.1875 6.7347,0 12.1875,-5.45281 12.1875,-12.1875 0,-6.7347 -5.4528,-12.1875 -12.1875,-12.1875 z m 120.875,0 c -6.73469,0 -12.15625,5.4528 -12.15625,12.1875 0,6.73469 5.42156,12.1875 12.15625,12.1875 6.7347,0 12.21875,-5.45281 12.21875,-12.1875 0,-6.7347 -5.48405,-12.1875 -12.21875,-12.1875 z m 120.875,0 c -6.73469,0 -12.15625,5.4528 -12.15625,12.1875 0,6.73469 5.42156,12.1875 12.15625,12.1875 C 554.51594,340.875 560,335.42219 560,328.6875 560,321.9528 554.51594,316.5 547.78125,316.5 Z m -362.625,4.46875 c 4.27078,0 7.75,3.44797 7.75,7.71875 0,4.27077 -3.47922,7.71875 -7.75,7.71875 -4.27078,0 -7.71875,-3.44798 -7.71875,-7.71875 0,-4.27078 3.44797,-7.71875 7.71875,-7.71875 z m 120.875,0 c 4.27078,0 7.75,3.44797 7.75,7.71875 0,4.27077 -3.47922,7.71875 -7.75,7.71875 -4.27077,0 -7.71875,-3.44798 -7.71875,-7.71875 0,-4.27078 3.44798,-7.71875 7.71875,-7.71875 z m 120.875,0 c 4.27078,0 7.75,3.44797 7.75,7.71875 0,4.27077 -3.47922,7.71875 -7.75,7.71875 -4.27077,0 -7.71875,-3.44798 -7.71875,-7.71875 0,-4.27078 3.44798,-7.71875 7.71875,-7.71875 z m 120.875,0 c 4.27078,0 7.75,3.44797 7.75,7.71875 0,4.27077 -3.47922,7.71875 -7.75,7.71875 -4.27078,0 -7.71875,-3.44798 -7.71875,-7.71875 0,-4.27078 3.44797,-7.71875 7.71875,-7.71875 z m -400.25,32.28125 v 7.59375 H 585.4375 V 353.25 Z"
           id="rect3849"
           style="fill:#000000;fill-opacity:1;stroke:none" />
        <path
           d="m 295.6875,222.59375 -37.75,27.625 -23.78125,4.5 -7.25,22 h 26.6875 32.75 v -20.1875 l 28.4375,-22.15625 h 5.03125 10.15625 l 9.90625,21.0625 v 7.75 H 300.25 v 13.53125 H 432.71875 V 263.1875 h -39.625 v -7.75 L 403,234.375 h 10.15625 5.03125 l 28.4375,22.15625 v 20.1875 h 32.75 26.6875 l -7.25,-22 -23.78125,-4.5 -37.75,-27.625 H 432.125 413.15625 403.09375 329.875 319.8125 300.84375 Z"
           id="rect3855"
           style="fill:#000000;fill-opacity:1;stroke:none" />
        <path
           d="m 159.9375,376.3125 v 12.8125 l -3.40625,1.28125 c -0.19718,-0.52641 -0.50551,-0.96413 -0.90625,-1.34375 -0.25889,-0.24525 -0.58418,-0.49459 -0.90625,-0.65625 -0.15667,-0.0796 -0.33116,-0.16222 -0.5,-0.21875 -0.16909,-0.0553 -0.35205,-0.0636 -0.53125,-0.0937 -0.009,-10e-4 -0.0223,0.001 -0.0312,0 -0.18873,-0.0302 -0.39616,-0.0625 -0.59375,-0.0625 -0.75989,0 -1.44945,0.20192 -2.03125,0.59375 -0.18912,0.12785 -0.36971,0.30888 -0.53125,0.46875 -0.3293,0.3293 -0.62885,0.71931 -0.8125,1.15625 -0.18624,0.43695 -0.25,0.93091 -0.25,1.4375 v 1.375 c -0.77509,0.34477 -1.48228,0.72685 -2.125,1.15625 -0.48816,0.32614 -0.95273,0.66175 -1.34375,1.0625 -0.12381,0.12689 -0.23087,0.27041 -0.34375,0.40625 -0.004,0.005 0.004,0.026 0,0.0312 -0.1122,0.13595 -0.24302,0.26066 -0.34375,0.40625 -0.004,0.006 0.004,0.0253 0,0.0312 -0.10006,0.1458 -0.22445,0.28135 -0.3125,0.4375 -0.004,0.007 0.004,0.0245 0,0.0312 -0.0872,0.15616 -0.17533,0.30158 -0.25,0.46875 -0.004,0.008 0.003,0.0236 0,0.0312 -0.38435,0.86982 -0.59375,1.90048 -0.59375,3.125 v 1.71875 c 0,2.26389 0.65839,3.62639 1.8125,4.46875 0.12815,0.0936 0.2664,0.20049 0.40625,0.28125 0.84263,0.49179 1.89084,0.73219 3.09375,0.875 v 1.0625 h -0.65625 v 4.75 l 2.34375,0.75 v -2.15625 c 0.0794,0.0511 0.16336,0.11408 0.25,0.15625 0.0452,0.022 0.0785,0.0424 0.125,0.0625 0.13583,0.0666 0.2617,0.10658 0.40625,0.15625 0.002,8.2e-4 -0.002,0.0304 0,0.0312 v 1.75 h 2.3125 v -1.75 c 0.28517,-0.0908 0.5317,-0.22056 0.78125,-0.375 v 2.125 l 2.3125,-0.75 v -4.75 h -0.5625 v -0.90625 h 59.40625 v 0.90625 h -0.5625 v 4.75 l 2.3125,0.75 v -2.125 c 0.24955,0.15444 0.49608,0.2842 0.78125,0.375 v 1.75 h 2.3125 v -1.75 -0.0312 c 0.14456,-0.0497 0.27042,-0.0897 0.40625,-0.15625 0.0465,-0.02 0.11109,-0.0405 0.15625,-0.0625 0.0866,-0.0421 0.13932,-0.10518 0.21875,-0.15625 v 2.15625 l 2.34375,-0.75 v -4.75 h -0.65625 v -1.0625 c 1.39269,-0.16534 2.60236,-0.50108 3.5,-1.15625 1.1533,-0.84236 1.8125,-2.20486 1.8125,-4.46875 v -1.71875 c 0,-2.21561 -0.68058,-3.78994 -1.84375,-4.96875 -0.39102,-0.40075 -0.82434,-0.73636 -1.3125,-1.0625 -0.64272,-0.4294 -1.38116,-0.81148 -2.15625,-1.15625 v -1.375 c 0,-0.50659 -0.0638,-1.00055 -0.25,-1.4375 -0.18365,-0.43694 -0.4832,-0.82695 -0.8125,-1.15625 -0.17041,-0.17041 -0.3608,-0.33488 -0.5625,-0.46875 -0.1887,-0.12603 -0.35117,-0.2225 -0.5625,-0.3125 -0.008,-0.003 -0.0231,0.003 -0.0312,0 -0.21161,-0.0884 -0.42671,-0.13937 -0.65625,-0.1875 -0.009,-0.002 -0.0225,0.002 -0.0312,0 -0.23902,-0.0483 -0.49671,-0.0937 -0.75,-0.0937 -0.5895,0 -1.13263,0.12785 -1.625,0.375 -0.32206,0.16166 -0.64737,0.411 -0.90625,0.65625 -0.40074,0.37962 -0.70907,0.81734 -0.90625,1.34375 l -3.40625,-1.28125 v -12.8125 h -53 -0.0312 z m 120,0 v 12.8125 l -3.40625,1.28125 c -0.19718,-0.52641 -0.50551,-0.96413 -0.90625,-1.34375 -0.25889,-0.24525 -0.55293,-0.49459 -0.875,-0.65625 -0.008,-0.004 -0.0236,0.004 -0.0312,0 -0.15667,-0.0796 -0.29991,-0.16222 -0.46875,-0.21875 -0.009,-0.003 -0.0227,0.003 -0.0312,0 -0.16909,-0.0553 -0.35205,-0.0636 -0.53125,-0.0937 -0.009,-10e-4 -0.0224,0.001 -0.0312,0 -0.18873,-0.0302 -0.36491,-0.0625 -0.5625,-0.0625 -0.75989,0 -1.4807,0.20192 -2.0625,0.59375 -0.18912,0.12785 -0.33846,0.30888 -0.5,0.46875 -0.3293,0.3293 -0.62885,0.71931 -0.8125,1.15625 -0.18624,0.43695 -0.28125,0.93091 -0.28125,1.4375 v 1.375 c -0.77509,0.34477 -1.48228,0.72685 -2.125,1.15625 -0.48816,0.32614 -0.92148,0.66175 -1.3125,1.0625 -0.12381,0.12689 -0.26212,0.27041 -0.375,0.40625 -0.004,0.005 0.004,0.026 0,0.0312 -0.1122,0.13595 -0.21177,0.26066 -0.3125,0.40625 -0.004,0.006 0.004,0.0253 0,0.0312 -0.10006,0.1458 -0.22445,0.28135 -0.3125,0.4375 -0.004,0.007 0.004,0.0245 0,0.0312 -0.0872,0.15616 -0.17533,0.30158 -0.25,0.46875 -0.004,0.008 0.003,0.0236 0,0.0312 -0.38435,0.86982 -0.625,1.90048 -0.625,3.125 v 1.71875 c 0,2.26389 0.68964,3.62639 1.84375,4.46875 0.12815,0.0936 0.23515,0.20049 0.375,0.28125 0.84263,0.49179 1.89084,0.73219 3.09375,0.875 v 1.0625 h -0.625 v 4.75 l 2.3125,0.75 v -2.15625 c 0.0794,0.0511 0.16336,0.11408 0.25,0.15625 0.0452,0.022 0.10979,0.0424 0.15625,0.0625 0.13583,0.0666 0.2617,0.10658 0.40625,0.15625 0.002,8.2e-4 -0.002,0.0304 0,0.0312 v 1.75 h 2.28125 v -1.75 c 0.28517,-0.0908 0.56295,-0.22056 0.8125,-0.375 v 2.125 l 2.28125,-0.75 v -4.75 h -0.53125 v -0.90625 h 59.40625 v 0.90625 h -0.5625 v 4.75 l 2.28125,0.75 v -2.125 c 0.24955,0.15444 0.52733,0.2842 0.8125,0.375 v 1.75 h 2.28125 v -1.75 -0.0312 c 0.14456,-0.0497 0.30167,-0.0897 0.4375,-0.15625 0.0465,-0.02 0.0798,-0.0405 0.125,-0.0625 0.0866,-0.0421 0.17057,-0.10518 0.25,-0.15625 v 2.15625 l 2.3125,-0.75 v -4.75 h -0.625 v -1.0625 c 1.39269,-0.16534 2.57111,-0.50108 3.46875,-1.15625 1.1533,-0.84236 1.84375,-2.20486 1.84375,-4.46875 v -1.71875 c 0,-2.21561 -0.68058,-3.78994 -1.84375,-4.96875 -0.39102,-0.40075 -0.85559,-0.73636 -1.34375,-1.0625 -0.64272,-0.4294 -1.34991,-0.81148 -2.125,-1.15625 v -1.375 c 0,-0.50659 -0.095,-1.00055 -0.28125,-1.4375 -0.18365,-0.43694 -0.45195,-0.82695 -0.78125,-1.15625 -0.17041,-0.17041 -0.3608,-0.33488 -0.5625,-0.46875 -0.1887,-0.12603 -0.38242,-0.2225 -0.59375,-0.3125 -0.008,-0.003 -0.0231,0.003 -0.0312,0 -0.21161,-0.0884 -0.42671,-0.13937 -0.65625,-0.1875 -0.009,-0.002 -0.0226,0.002 -0.0312,0 -0.23902,-0.0483 -0.49671,-0.0937 -0.75,-0.0937 -0.5895,0 -1.13263,0.12785 -1.625,0.375 -0.32206,0.16166 -0.61612,0.411 -0.875,0.65625 -0.40074,0.37962 -0.70907,0.81734 -0.90625,1.34375 L 333,389.125 v -12.8125 h -0.0312 -53 -0.0312 z m 120.03125,0 v 12.8125 l -3.40625,1.28125 c -0.19718,-0.52641 -0.50551,-0.96413 -0.90625,-1.34375 -0.25889,-0.24525 -0.55293,-0.49459 -0.875,-0.65625 -0.008,-0.004 -0.0236,0.004 -0.0312,0 -0.15667,-0.0796 -0.29991,-0.16222 -0.46875,-0.21875 -0.009,-0.003 -0.0227,0.003 -0.0312,0 -0.16909,-0.0553 -0.35205,-0.0636 -0.53125,-0.0937 -0.009,-10e-4 -0.0224,0.001 -0.0312,0 -0.18873,-0.0302 -0.39616,-0.0625 -0.59375,-0.0625 -0.75989,0 -1.44945,0.20192 -2.03125,0.59375 -0.18912,0.12785 -0.36971,0.30888 -0.53125,0.46875 -0.3293,0.3293 -0.5976,0.71931 -0.78125,1.15625 -0.18624,0.43695 -0.28125,0.93091 -0.28125,1.4375 v 1.375 c -0.77509,0.34477 -1.48228,0.72685 -2.125,1.15625 -0.48816,0.32614 -0.95273,0.66175 -1.34375,1.0625 -0.12381,0.12689 -0.23087,0.27041 -0.34375,0.40625 -0.004,0.005 0.004,0.026 0,0.0312 -0.1122,0.13595 -0.24302,0.26066 -0.34375,0.40625 -0.004,0.006 0.004,0.0253 0,0.0312 -0.10006,0.1458 -0.22445,0.28135 -0.3125,0.4375 -0.004,0.007 0.004,0.0245 0,0.0312 -0.0872,0.15616 -0.17533,0.30158 -0.25,0.46875 -0.004,0.008 0.003,0.0236 0,0.0312 -0.38435,0.86982 -0.59375,1.90048 -0.59375,3.125 v 1.71875 c 0,2.26389 0.65839,3.62639 1.8125,4.46875 0.12815,0.0936 0.2664,0.20049 0.40625,0.28125 0.84263,0.49179 1.89084,0.73219 3.09375,0.875 v 1.0625 h -0.65625 v 4.75 l 2.34375,0.75 v -2.15625 c 0.0794,0.0511 0.16336,0.11408 0.25,0.15625 0.0452,0.022 0.0785,0.0424 0.125,0.0625 0.13583,0.0666 0.2617,0.10658 0.40625,0.15625 0.002,8.2e-4 -0.002,0.0304 0,0.0312 v 1.75 h 2.3125 v -1.75 c 0.28517,-0.0908 0.5317,-0.22056 0.78125,-0.375 v 2.125 l 2.3125,-0.75 v -4.75 h -0.5625 v -0.90625 h 59.40625 v 0.90625 h -0.53125 v 4.75 l 2.28125,0.75 v -2.125 c 0.24955,0.15444 0.52733,0.2842 0.8125,0.375 v 1.75 h 2.28125 v -1.75 -0.0312 c 0.14456,-0.0497 0.27042,-0.0897 0.40625,-0.15625 0.0465,-0.02 0.11109,-0.0405 0.15625,-0.0625 0.0866,-0.0421 0.17057,-0.10518 0.25,-0.15625 v 2.15625 l 2.3125,-0.75 v -4.75 h -0.625 v -1.0625 c 1.39269,-0.16534 2.57111,-0.50108 3.46875,-1.15625 1.1533,-0.84236 1.8125,-2.20486 1.8125,-4.46875 v -1.71875 c 0,-2.21561 -0.68058,-3.78994 -1.84375,-4.96875 -0.39102,-0.40075 -0.82434,-0.73636 -1.3125,-1.0625 -0.64272,-0.4294 -1.34991,-0.81148 -2.125,-1.15625 v -1.375 c 0,-0.50659 -0.095,-1.00055 -0.28125,-1.4375 -0.18365,-0.43694 -0.4832,-0.82695 -0.8125,-1.15625 -0.17041,-0.17041 -0.3608,-0.33488 -0.5625,-0.46875 -0.1887,-0.12603 -0.35117,-0.2225 -0.5625,-0.3125 -0.008,-0.003 -0.0231,0.003 -0.0312,0 -0.21161,-0.0884 -0.42671,-0.13937 -0.65625,-0.1875 -0.009,-0.002 -0.0226,0.002 -0.0312,0 -0.23902,-0.0483 -0.49671,-0.0937 -0.75,-0.0937 -0.5895,0 -1.13263,0.12785 -1.625,0.375 -0.32206,0.16166 -0.64737,0.411 -0.90625,0.65625 -0.40074,0.37962 -0.70907,0.81734 -0.90625,1.34375 l -3.375,-1.28125 v -12.8125 h -0.0312 -53 -0.0312 z m 120,0 v 12.8125 l -3.375,1.28125 c -0.19718,-0.52641 -0.53676,-0.96413 -0.9375,-1.34375 -0.25889,-0.24525 -0.55293,-0.49459 -0.875,-0.65625 -0.008,-0.004 -0.0236,0.004 -0.0312,0 -0.15667,-0.0796 -0.29991,-0.16222 -0.46875,-0.21875 -0.009,-0.003 -0.0227,0.003 -0.0312,0 -0.16909,-0.0553 -0.35205,-0.0636 -0.53125,-0.0937 -0.18873,-0.0302 -0.39616,-0.0625 -0.59375,-0.0625 -0.75989,0 -1.44945,0.20192 -2.03125,0.59375 -0.18912,0.12785 -0.36971,0.30888 -0.53125,0.46875 -0.3293,0.3293 -0.62885,0.71931 -0.8125,1.15625 -0.18624,0.43695 -0.28125,0.93091 -0.28125,1.4375 v 1.375 c -0.77509,0.34477 -1.48228,0.72685 -2.125,1.15625 -0.48816,0.32614 -0.92148,0.66175 -1.3125,1.0625 -0.12381,0.12689 -0.26212,0.27041 -0.375,0.40625 -0.004,0.005 0.004,0.026 0,0.0312 -0.1122,0.13595 -0.21177,0.26066 -0.3125,0.40625 -0.004,0.006 0.004,0.0253 0,0.0312 -0.10006,0.1458 -0.22445,0.28135 -0.3125,0.4375 -0.004,0.007 0.004,0.0245 0,0.0312 -0.0872,0.15616 -0.17533,0.30158 -0.25,0.46875 -0.004,0.008 0.003,0.0236 0,0.0312 -0.38435,0.86982 -0.59375,1.90048 -0.59375,3.125 v 1.71875 c 0,2.26389 0.65839,3.62639 1.8125,4.46875 0.12815,0.0936 0.23515,0.20049 0.375,0.28125 0.84263,0.49179 1.89084,0.73219 3.09375,0.875 v 1.0625 h -0.625 v 4.75 l 2.3125,0.75 v -2.15625 c 0.0794,0.0511 0.16336,0.11408 0.25,0.15625 0.0452,0.022 0.10979,0.0424 0.15625,0.0625 0.13583,0.0666 0.2617,0.10658 0.40625,0.15625 0.002,8.2e-4 -0.002,0.0304 0,0.0312 v 1.75 h 2.28125 v -1.75 c 0.28517,-0.0908 0.56295,-0.22056 0.8125,-0.375 v 2.125 l 2.28125,-0.75 v -4.75 h -0.53125 v -0.90625 h 59.40625 v 0.90625 h -0.5625 v 4.75 l 2.3125,0.75 v -2.125 c 0.24955,0.15444 0.49608,0.2842 0.78125,0.375 v 1.75 h 2.3125 v -1.75 -0.0312 c 0.14456,-0.0497 0.27042,-0.0897 0.40625,-0.15625 0.0465,-0.02 0.0798,-0.0405 0.125,-0.0625 0.0866,-0.0421 0.17057,-0.10518 0.25,-0.15625 v 2.15625 l 2.3125,-0.75 v -4.75 h -0.625 v -1.0625 c 1.39269,-0.16534 2.60236,-0.50108 3.5,-1.15625 1.1533,-0.84236 1.8125,-2.20486 1.8125,-4.46875 v -1.71875 c 0,-2.21561 -0.68058,-3.78994 -1.84375,-4.96875 -0.39102,-0.40075 -0.85559,-0.73636 -1.34375,-1.0625 -0.64272,-0.4294 -1.34991,-0.81148 -2.125,-1.15625 v -1.375 c 0,-0.50659 -0.095,-1.00055 -0.28125,-1.4375 -0.18365,-0.43694 -0.45195,-0.82695 -0.78125,-1.15625 -0.17041,-0.17041 -0.3608,-0.33488 -0.5625,-0.46875 -0.1887,-0.12603 -0.38242,-0.2225 -0.59375,-0.3125 -0.008,-0.003 -0.0231,0.003 -0.0312,0 -0.21161,-0.0884 -0.42671,-0.13937 -0.65625,-0.1875 -0.009,-0.002 -0.0226,0.002 -0.0312,0 -0.23902,-0.0483 -0.46546,-0.0937 -0.71875,-0.0937 -0.5895,0 -1.16388,0.12785 -1.65625,0.375 -0.32206,0.16166 -0.61612,0.411 -0.875,0.65625 -0.40074,0.37962 -0.70907,0.81734 -0.90625,1.34375 l -3.40625,-1.28125 v -12.8125 h -0.0312 -53 -0.0312 z"
           id="rect3872"
           style="fill:#000000;fill-opacity:1;stroke:none" />
        <path
           d="m 340.85664,632.49187 v 141.26005 c 0,28.988 31.07312,60.06112 60.06112,60.06112 H 646.9629 V 787.3141 H 431.91706 c -28.98801,0 -44.56148,-15.57347 -44.56148,-44.56148 V 632.49187 Z"
           id="path3017"
           style="fill:#000000;fill-opacity:1;stroke:none" />
        <path
           d="m 351.75,104.78125 c -1.84295,0 -3.3125,1.50079 -3.3125,3.34375 v 6.625 c 0,1.84296 1.46954,3.3125 3.3125,3.3125 h 4.28125 c 1.84296,0 3.34375,-1.46954 3.34375,-3.3125 v -6.625 c 0,-1.84296 -1.50078,-3.34375 -3.34375,-3.34375 z m 12.59375,0 c -1.84296,0 -3.34375,1.50079 -3.34375,3.34375 v 6.625 c 0,1.84296 1.50079,3.3125 3.34375,3.3125 h 4.28125 c 1.84296,0 3.34375,-1.46954 3.34375,-3.3125 v -6.625 c 0,-1.84296 -1.50079,-3.34375 -3.34375,-3.34375 z m 12.59375,0 c -1.84296,0 -3.34375,1.50079 -3.34375,3.34375 v 6.625 c 0,1.84296 1.50079,3.3125 3.34375,3.3125 h 4.28125 c 1.84296,0 3.3125,-1.46954 3.3125,-3.3125 v -6.625 c 0,-1.84296 -1.46954,-3.34375 -3.3125,-3.34375 z m -10.46875,15.90625 c -77.53327,0 -140.375,2.30208 -140.375,11.5625 0,1.95929 -5.17092,5.90843 0,7.65625 H 506.875 c 5.17092,-1.74782 0,-5.69696 0,-7.65625 0,-9.26042 -62.87298,-11.5625 -140.40625,-11.5625 z M 225,144.375 v 51.5625 h 11.25 V 144.375 Z m 20.90625,0 v 51.5625 h 11.25 V 144.375 Z m 20.90625,0 v 51.5625 h 11.25 V 144.375 Z m 20.875,0 v 51.5625 h 11.28125 V 144.375 Z m 20.90625,0 v 51.5625 H 319.875 V 144.375 Z m 20.90625,0 v 51.5625 h 11.25 V 144.375 Z m 20.90625,0 v 51.5625 h 11.25 V 144.375 Z m 20.90625,0 v 51.5625 h 11.25 V 144.375 Z m 20.90625,0 v 51.5625 h 11.25 V 144.375 Z m 20.875,0 v 51.5625 H 424.375 V 144.375 Z m 20.90625,0 v 51.5625 h 11.28125 V 144.375 Z m 20.90625,0 v 51.5625 h 11.25 V 144.375 Z m 20.90625,0 v 51.5625 h 11.25 V 144.375 Z m 20.90625,0 v 51.5625 h 11.25 V 144.375 Z m -270.625,55.59375 c -5.17092,1.74782 0,5.69696 0,7.65625 0,9.26042 62.84173,11.5625 140.375,11.5625 77.53327,0 140.40625,-2.30208 140.40625,-11.5625 0,-1.95929 5.17092,-5.90843 0,-7.65625 z"
           id="path3029"
           style="fill:#000000;fill-opacity:1;stroke:none" />
        <path
           d="m 162.84375,410.5 v 73.25 c 0,28.988 31.0745,60.0625 60.0625,60.0625 h 91.9375 22.625 l 3.375,7.5625 c 0,0 -6,6.97794 -6,11.21875 0,4.24081 6,11.21875 6,11.21875 V 596.25 h 46.5 v -22.4375 c 0,0 6,-6.97794 6,-11.21875 0,-4.24081 -6,-11.21875 -6,-11.21875 l 3.375,-7.5625 h 30.25 13.875 34.125 41.9375 c 28.988,0 60.0625,-31.0745 60.0625,-60.0625 V 410.5 h -46.5 v 42.25 c 0,28.98801 -15.57449,44.5625 -44.5625,44.5625 h -10.9375 -26.125 c 1.37787,-4.48353 8.125,-0.63585 8.125,-13.5625 V 410.5 h -46.5 v 42.25 c 0,26.18894 -12.73221,39.42605 -36.5625,42.125 -23.83029,-2.69895 -36.5625,-15.93606 -36.5625,-42.125 V 410.5 h -46.5 v 73.25 c 0,13.52803 6.74713,9.07897 8.125,13.5625 h -39.0625 c -28.98801,0 -44.5625,-15.57449 -44.5625,-44.5625 V 410.5 Z"
           id="rect2998"
           style="fill:#000000;fill-opacity:1;stroke:none" />
        <path
           d="m 181.5625,726.15625 c 7.69255,22.96637 27.78908,39.28125 51.53125,39.28125 l 101.96875,3.34375 v -42.625 z m 212.71875,0 c 0,0 1.32262,25.07835 6.23348,39.0012 C 404.46529,776.35776 433,777.4375 433,777.4375 l 77.96875,-2 33.9375,-10 c 22.77494,-6.70742 43.8699,-16.31498 51.5625,-39.28125 z"
           id="rect3120"
           style="fill:#000000;fill-opacity:1;stroke:none" />
        <rect
           width="83.308716"
           height="27.851009"
           rx="12.167916"
           ry="12.167915"
           x="325.25189"
           y="600.4989"
           id="rect3130"
           style="fill:#000000;fill-opacity:1;stroke:none" />
      </g>
    </g>
    <path
       style="display:inline;fill:none;stroke:#000000;stroke-width:3;stroke-linecap:butt;stroke-linejoin:miter;stroke-miterlimit:4;stroke-dasharray:none;stroke-opacity:1;marker-end:url(#Arrow2Send-9)"
       d="M 202.07092,217.55126 C 469.32601,351.54094 469.32601,351.54094 469.32601,351.54094"
       id="path6475"
       transform="matrix(1.3475053,0,0,1.2520525,-251.8761,-254.7453)" />
    <text
       xml:space="preserve"
       style="display:inline;font-size:32px;fill:#000000"
       x="334.58762"
       y="130.84778"
       id="text628"
       transform="matrix(1.1980659,0.57308254,-0.61677266,1.1131989,-251.8761,-254.7453)"><tspan
         id="tspan626"
         x="334.58762"
         y="130.84778">150</tspan><tspan
         x="334.58762"
         y="170.84778"
         id="tspan630" /></text>
  </g>
</svg>
