<?xml version="1.0" encoding="UTF-8" standalone="no"?>
<!-- Created with Inkscape (http://www.inkscape.org/) -->

<svg
   width="1920"
   height="1080"
   viewBox="0 0 508 285.75"
   version="1.1"
   id="svg5"
   xml:space="preserve"
   inkscape:version="1.2.2 (b0a8486541, 2022-12-01)"
   sodipodi:docname="modell-betrieb-neu.svg"
   xmlns:inkscape="http://www.inkscape.org/namespaces/inkscape"
   xmlns:sodipodi="http://sodipodi.sourceforge.net/DTD/sodipodi-0.dtd"
   xmlns="http://www.w3.org/2000/svg"
   xmlns:svg="http://www.w3.org/2000/svg"><sodipodi:namedview
     id="namedview7"
     pagecolor="#ffffff"
     bordercolor="#000000"
     borderopacity="0.25"
     inkscape:showpageshadow="2"
     inkscape:pageopacity="0.0"
     inkscape:pagecheckerboard="0"
     inkscape:deskcolor="#d1d1d1"
     inkscape:document-units="mm"
     showgrid="false"
     inkscape:zoom="0.70710678"
     inkscape:cx="941.86623"
     inkscape:cy="561.44278"
     inkscape:window-width="1883"
     inkscape:window-height="1176"
     inkscape:window-x="37"
     inkscape:window-y="0"
     inkscape:window-maximized="1"
     inkscape:current-layer="svg5" /><defs
     id="defs2"><linearGradient
       id="linearGradient40237"
       y2="432.28"
       gradientUnits="userSpaceOnUse"
       x2="-214.8"
       gradientTransform="matrix(1,0,0,0.78415,-2.8281,112.43)"
       y1="432.28"
       x1="-245.49"
       inkscape:collect="always"><stop
         id="stop40233"
         style="stop-color:#d3d7cf"
         offset="0" /><stop
         id="stop40239"
         style="stop-color:#eeeeec"
         offset=".11792" /><stop
         id="stop40235"
         style="stop-color:#555753"
         offset="1" /></linearGradient><marker
       style="overflow:visible"
       id="Arrow2"
       refX="0"
       refY="0"
       orient="auto-start-reverse"
       inkscape:stockid="Arrow2"
       markerWidth="7.6999998"
       markerHeight="5.5999999"
       viewBox="0 0 7.7 5.6"
       inkscape:isstock="true"
       inkscape:collect="always"
       preserveAspectRatio="xMidYMid"><path
         transform="scale(0.7)"
         d="M -2,-4 9,0 -2,4 c 2,-2.33 2,-5.66 0,-8 z"
         style="fill:context-stroke;fill-rule:evenodd;stroke:none"
         id="arrow2L" /></marker><marker
       orient="auto"
       refY="0"
       refX="0"
       id="Arrow2Sstart"
       style="overflow:visible"><path
         id="path3920"
         style="fill-rule:evenodd;stroke-width:0.625;stroke-linejoin:round"
         d="M 8.7185878,4.0337352 -2.2072895,0.01601326 8.7185884,-4.0017078 c -1.7454984,2.3720609 -1.7354408,5.6174519 -6e-7,8.035443 z"
         transform="matrix(0.3,0,0,0.3,-0.69,0)" /></marker><marker
       orient="auto"
       refY="0"
       refX="0"
       id="Arrow2Sstart-9"
       style="overflow:visible"><path
         id="path3920-8"
         style="fill-rule:evenodd;stroke-width:0.625;stroke-linejoin:round"
         d="M 8.7185878,4.0337352 -2.2072895,0.01601326 8.7185884,-4.0017078 c -1.7454984,2.3720609 -1.7354408,5.6174519 -6e-7,8.035443 z"
         transform="matrix(0.3,0,0,0.3,-0.69,0)" /></marker><marker
       orient="auto"
       refY="0"
       refX="0"
       id="Arrow2Send"
       style="overflow:visible"><path
         id="path3923"
         style="fill-rule:evenodd;stroke-width:0.625;stroke-linejoin:round"
         d="M 8.7185878,4.0337352 -2.2072895,0.01601326 8.7185884,-4.0017078 c -1.7454984,2.3720609 -1.7354408,5.6174519 -6e-7,8.035443 z"
         transform="matrix(-0.3,0,0,-0.3,0.69,0)" /></marker><marker
       orient="auto"
       refY="0"
       refX="0"
       id="Arrow2Sstart-3"
       style="overflow:visible"><path
         id="path3920-6"
         style="fill-rule:evenodd;stroke-width:0.625;stroke-linejoin:round"
         d="M 8.7185878,4.0337352 -2.2072895,0.01601326 8.7185884,-4.0017078 c -1.7454984,2.3720609 -1.7354408,5.6174519 -6e-7,8.035443 z"
         transform="matrix(0.3,0,0,0.3,-0.69,0)" /></marker><marker
       orient="auto"
       refY="0"
       refX="0"
       id="Arrow2Sstart-7"
       style="overflow:visible"><path
         id="path3920-5"
         style="fill-rule:evenodd;stroke-width:0.625;stroke-linejoin:round"
         d="M 8.7185878,4.0337352 -2.2072895,0.01601326 8.7185884,-4.0017078 c -1.7454984,2.3720609 -1.7354408,5.6174519 -6e-7,8.035443 z"
         transform="matrix(0.3,0,0,0.3,-0.69,0)" /></marker><marker
       orient="auto"
       refY="0"
       refX="0"
       id="Arrow2Send-9"
       style="overflow:visible"><path
         id="path3923-2"
         style="fill-rule:evenodd;stroke-width:0.625;stroke-linejoin:round"
         d="M 8.7185878,4.0337352 -2.2072895,0.01601326 8.7185884,-4.0017078 c -1.7454984,2.3720609 -1.7354408,5.6174519 -6e-7,8.035443 z"
         transform="matrix(-0.3,0,0,-0.3,0.69,0)" /></marker></defs><g
     inkscape:groupmode="layer"
     id="layer3"
     inkscape:label="Hintergrund"
     style="display:inline"><ellipse
       style="display:inline;fill:#ffffff;fill-opacity:1;stroke:#ff0000;stroke-width:0.446404;stroke-linecap:round;stroke-opacity:1"
       id="path414"
       cx="237.84084"
       cy="146.63858"
       rx="12.679685"
       ry="8.6560135"
       inkscape:transform-center-x="-51.09223"
       inkscape:transform-center-y="31.961776" /></g><g
     inkscape:label="Betrieb"
     inkscape:groupmode="layer"
     id="layer1"
     style="display:inline"><g
       id="layer1-3"
       inkscape:label="Capa 1"
       transform="matrix(0.26458333,0,0,0.26458333,102.06355,-33.410073)"><path
         id="path39383"
         sodipodi:nodetypes="ccccc"
         style="fill:#364e59"
         d="m 586.19,722.59 -46.029,26.575 v -53.15 L 586.19,669.44 Z" /><path
         id="path5471"
         style="fill:#555753"
         d="m 448.1,625.15 46.029,-26.575 15.343,26.575 -46.029,26.575 z" /><path
         id="path5473"
         style="fill:#555753"
         d="M 463.45,634 509.479,607.425 524.822,634 478.793,660.575 Z" /><path
         id="path5475"
         style="fill:#555753"
         d="m 478.79,642.86 46.029,-26.575 15.343,26.575 -46.029,26.575 z" /><path
         id="path5477"
         style="fill:#555753"
         d="m 494.13,651.72 46.029,-26.575 15.343,26.575 -46.029,26.575 z" /><path
         id="path5479"
         style="fill:#555753"
         d="m 509.47,660.58 46.029,-26.575 15.343,26.575 -46.029,26.575 z" /><path
         id="path5481"
         style="fill:#555753"
         d="m 524.82,669.44 46.029,-26.575 15.343,26.575 -46.029,26.575 z" /><path
         id="path39379"
         sodipodi:nodetypes="cccccccccccccccccc"
         style="fill:#9eabb0"
         d="m 448.11,625.16 v 17.688 l -0.014,53.158 92.062,53.156 0.014,-53.158 -15.344,-26.562 v 17.688 h -0.0312 l -15.312,-26.562 v 17.719 l -15.344,-26.562 v 17.719 l -15.344,-26.594 v 17.719 l -15.344,-26.562 v 17.688 h -0.0312 l -15.312,-26.531 z" /><path
         id="path5483"
         style="fill:#babdb6"
         d="m 570.85,749.16 -15.343,-8.8583 v -35.433 l 15.343,8.8583 z" /><path
         id="path5485"
         style="fill:#888a85"
         d="m 570.85,749.16 15.343,-8.8583 v -35.433 l -15.343,8.8583 z" /><path
         id="path5966"
         style="fill:#151819"
         d="m 540.11,696.07 45.75,-26.5 -0.25,3.75 -45.625,25.75 z" /><path
         id="path5487"
         sodipodi:nodetypes="ccccc"
         style="fill:#eeeeec"
         d="m 555.5,704.87 15.343,-8.8583 15.343,8.8583 -15.343,8.8583 z" /><g
         id="g40252"
         transform="matrix(1,0,0,0.80474,813,284.95)"><path
           id="rect40229"
           sodipodi:nodetypes="cccssscccc"
           style="fill:url(#linearGradient40237)"
           d="m -246.33,381.95 -2,138.92 h 0.0625 c -10e-4,0.0254 0,0.048 0,0.0735 0,1.9181 3.4507,3.4797 7.6875,3.4797 4.2368,0 7.6562,-1.5615 7.6562,-3.4797 0,-0.15171 -0.0208,-0.29449 -0.0625,-0.44108 l -2,-138.55 h -13.344 l 2,10e-6 z" /><ellipse
           id="path40241"
           style="fill:#eeeeec"
           transform="matrix(0.75605,0,0,0.59285,-58.505,581.95)"
           cx="-240.88463"
           cy="-338.09055"
           rx="7.6714849"
           ry="4.4291339" /><ellipse
           id="path5489"
           style="fill:#888a85"
           transform="matrix(0.52141,0,0,0.40886,-115.02,520.56)"
           cx="-240.88463"
           cy="-338.09055"
           rx="7.6714849"
           ry="4.4291339" /></g><path
         id="path5529"
         style="fill:none;stroke:#000000;stroke-width:1px"
         d="m 463.45,634 46.029,-26.575" /><path
         id="path5531"
         style="fill:none;stroke:#000000;stroke-width:1px"
         d="m 478.79,642.86 46.029,-26.575" /><path
         id="path5533"
         style="fill:none;stroke:#000000;stroke-width:1px"
         d="m 494.13,651.72 46.029,-26.575" /><path
         id="path5535"
         style="fill:none;stroke:#000000;stroke-width:1px"
         d="m 510.24,660.69 -0.76248,-0.1122 46.029,-26.575" /><path
         id="path5537"
         sodipodi:nodetypes="cc"
         style="fill:none;stroke:#000000;stroke-width:1px"
         d="m 525.49,668.94 38.016,-21.22" /><path
         id="path5539"
         style="fill:none;stroke:#000000;stroke-width:1px;stroke-linejoin:bevel"
         d="m 448.49,626.44 14.959,25.28 v -17.717 l 15.343,26.575 v -17.717 l 15.343,26.575 v -17.717 l 15.343,26.575 v -17.717 l 15.343,26.575 v -17.717 l 15.343,26.575" /><g
         id="g5684"
         style="fill:#0084c8;stroke-width:1.25"
         transform="matrix(0.16,0,0,0.15593,450.89,650.49)"><path
           id="path5686"
           sodipodi:nodetypes="ccccc"
           style="fill:#0084c8"
           d="m 184.12,131.1 v 53.15 l 30.686,17.717 v -53.15 z" /><path
           id="path5688"
           style="fill:#0084c8;stroke:#ffffff;stroke-width:1.5827"
           d="m 214.8,148.82 v 53.15" /></g><g
         id="g5690"
         style="fill:#0084c8;stroke-width:1.25"
         transform="matrix(0.16,0,0,0.15593,445.98,647.73)"><path
           id="path5692"
           sodipodi:nodetypes="ccccc"
           style="fill:#0084c8"
           d="m 184.12,131.1 v 53.15 l 30.686,17.717 v -53.15 z" /><path
           id="path5694"
           style="fill:#0084c8;stroke:#ffffff;stroke-width:1.5827"
           d="m 214.8,148.82 v 53.15" /></g><g
         id="g5794"
         style="fill:#0084c8"
         transform="matrix(0.16,0,0,0.15593,480.35,667.31)"><path
           id="path5796"
           sodipodi:nodetypes="ccccc"
           style="fill:#0084c8"
           d="m 184.12,131.1 v 53.15 l 30.686,17.717 v -53.15 z" /><path
           id="path5798"
           style="fill:#0084c8;stroke:#ffffff;stroke-width:1.5827"
           d="m 214.8,148.82 v 53.15" /></g><g
         id="g5800"
         style="fill:#0084c8;stroke-width:1.25"
         transform="matrix(0.16,0,0,0.15593,475.44,664.54)"><path
           id="path5802"
           sodipodi:nodetypes="ccccc"
           style="fill:#0084c8"
           d="m 184.12,131.1 v 53.15 l 30.686,17.717 v -53.15 z" /><path
           id="path5804"
           style="fill:#0084c8;stroke:#ffffff;stroke-width:1.5827"
           d="m 214.8,148.82 v 53.15" /></g><path
         id="path5806"
         sodipodi:nodetypes="ccccc"
         style="fill:#555753"
         d="m 478.79,714.18 -1e-5,-28.961 30.686,17.266 v 28.961 l -30.686,-17.266 z" /><path
         id="path5808"
         style="fill:none;stroke:#000000;stroke-width:0.25"
         d="m 494.33,694.16 -0.19548,28.65" /><path
         id="path5810"
         style="fill:none;stroke:#000000;stroke-width:0.25"
         d="m 494.33,694.16 -0.19548,28.65" /><path
         id="path5822"
         sodipodi:nodetypes="ccccc"
         style="fill:#2e3436"
         d="m 514.62,722.8 v 10.63 l 6.1372,3.5433 v -10.63 z" /><path
         id="path5830"
         sodipodi:nodetypes="ccccc"
         style="fill:#555753"
         d="m 522.12,724.17 v 2.126 l -3.9823,2.0135 0.3,-2.0135 z" /><path
         id="path5834"
         sodipodi:nodetypes="ccccc"
         style="fill:#babdb6"
         d="m 522.12,724.17 -3.9823,4.076 -7.2146,-4.252 3.8323,-4.076 z" /><path
         id="path5491"
         sodipodi:nodetypes="cscccccccccccccccccccccccscc"
         style="fill:none;stroke:#2e3436;stroke-width:3;stroke-linejoin:bevel"
         d="m 572.38,589.85 c -3.2032,0 -5.7812,0.95797 -5.7812,2.125 0,0.14588 0.0165,0.26869 0.0937,0.40625 l -0.96875,53.406 -2.5625,1.5 -7.6562,-13.281 -7.6562,4.4375 -7.6875,-13.312 -7.6875,4.4375 -7.6562,-13.281 -7.6562,4.4375 -7.6875,-13.312 -7.6875,4.4375 -7.6562,-13.281 -46.031,26.562 0.0312,0.0625 -0.0312,70.812 92.062,53.156 15.344,-8.875 15.344,8.875 15.344,-8.875 v -17.719 -53.125 l -7,-12.125 -1.1562,-64.906 c 0.0902,-0.14806 0.15625,-0.27955 0.15625,-0.4375 0,-1.167 -2.6092,-2.125 -5.8125,-2.125 h 5e-5 z" /><path
         id="path5949"
         sodipodi:nodetypes="ccccccccccccccccccc"
         style="fill:#2e3436"
         d="m 448.11,625.16 v 17.688 l -0.014,3.158 92.062,53.156 0.014,-3.158 -15.344,-26.562 v 17.688 h -0.0312 l -15.312,-26.562 v 17.719 l -15.344,-26.562 v 17.719 l -15.344,-26.594 v 17.719 l -15.344,-26.562 v 17.688 h -0.0312 l -15.312,-26.531 h -10e-5 z" /></g></g><g
     inkscape:groupmode="layer"
     id="layer4"
     inkscape:label="absatz"
     style="display:inline"><g
       id="g2129"
       style="display:inline"
       inkscape:label="Erzeugnisse"
       transform="matrix(0.26458333,0,0,0.26458333,127.47387,50.192298)"><title
         id="title2179">Erzeugnisse</title><g
         transform="matrix(0.36,0,0,0.36,732.71155,341.37121)"
         id="layer1-9"
         style="display:inline"><path
           d="m 229.52,196.33 c -0.0871,-8.4109 0.63721,-14.117 2.9234,-14.617 l 11.848,-1.5386 c 8.3816,-3.8703 17.117,-8.6831 24.772,-10.617 5.8792,-1.1707 12.1,-1.8864 18.771,-2.0002 13.425,0.21409 28.358,-0.70172 37.85,2.4618 9.0416,4.1758 17.949,8.6206 26.465,13.848 11.478,0.78321 34.907,3.9761 38.312,7.6932 1.6978,2.2797 3.0493,4.7325 3.6927,7.5393 1.4878,0.61504 1.3828,2.8229 0.76932,5.5391 l -0.15386,5.5391 -5.693,2.308 -11.232,1.3848 -2.9234,0.76932 c -4.2378,9.9421 -19.973,8.7095 -24.31,-0.46159 l -3.5389,0.61546 -63.084,-0.61546 -0.76932,1.077 -4.9236,-0.15386 c -3.3049,10.149 -22.171,11.078 -25.08,-1.3848 h -2.4618 l -7.3855,-1.077 -11.232,-1.5386 c -3.0619,-1.8169 -4.3384,-3.1874 -4.6159,-4.3082 l 0.76931,-1.077 -0.61545,-6.1546 c 0.41416,-2.0835 0.79405,-2.7525 1.8464,-3.2311 z"
           id="path2220"
           style="fill-rule:evenodd" /></g><path
         style="display:inline;fill:none;stroke:#000000;stroke-width:3;stroke-linecap:butt;stroke-linejoin:miter;stroke-miterlimit:4;stroke-dasharray:none;stroke-opacity:1;marker-end:url(#Arrow2Sstart)"
         d="m 617.97669,394.2088 c 273.77351,-0.72427 273.04924,-0.72427 273.04924,-0.72427"
         id="path7091" /><text
         xml:space="preserve"
         style="font-size:32px;display:inline;fill:#000000"
         x="741.09015"
         y="422.09283"
         id="text646"><tspan
           id="tspan644"
           x="741.09015"
           y="422.09283">520</tspan></text></g></g><g
     inkscape:groupmode="layer"
     id="layer8"
     inkscape:label="ertraege"
     style="display:inline"><g
       transform="matrix(0.028575,0,0,0.028575,297.43157,121.54471)"
       id="layer1-45-9"
       style="display:inline"><path
         d="m 514.29,450.93 c 0,46.55 -37.736,84.286 -84.286,84.286 -46.55,0 -84.286,-37.736 -84.286,-84.286 0,-46.55 37.736,-84.286 84.286,-84.286 46.55,0 84.286,37.736 84.286,84.286 z"
         transform="translate(61.429,148.57)"
         id="path3757-8-8"
         style="fill:#ffffff;stroke:#2c3a4e;stroke-width:20;stroke-linecap:round;stroke-miterlimit:0" /><rect
         width="505.70999"
         height="202.86"
         rx="0"
         ry="0"
         x="157.14"
         y="626.65002"
         id="rect2985-8-0"
         style="fill:#ffffff;stroke:#2c3a4e;stroke-width:20;stroke-linecap:square" /><path
         d="m 277.14,330.93 c 0,35.504 -28.782,64.286 -64.286,64.286 -35.504,0 -64.286,-28.782 -64.286,-64.286 0,-35.504 28.782,-64.286 64.286,-64.286 35.504,0 64.286,28.782 64.286,64.286 z"
         transform="translate(118.57,194)"
         id="path3755-9-6"
         style="fill:#ffffff;stroke:#2c3a4e;stroke-width:17;stroke-linecap:round;stroke-miterlimit:0" /><path
         d="m 442.86,272.36 c 0,26.825 -21.746,48.571 -48.571,48.571 -26.825,0 -48.571,-21.746 -48.571,-48.571 0,-26.825 21.746,-48.571 48.571,-48.571 26.825,0 48.571,21.746 48.571,48.571 z"
         transform="translate(56,174)"
         id="path3759-1-9"
         style="fill:#ffffff;stroke:#2c3a4e;stroke-width:14;stroke-linecap:round;stroke-miterlimit:0" /><text
         x="397.14285"
         y="797.21936"
         id="text3761-3-0"
         xml:space="preserve"
         style="font-size:12px;line-height:0%;font-family:sans-serif;text-align:center;letter-spacing:0px;word-spacing:0px;text-anchor:middle;fill:#000000"><tspan
           x="397.14285"
           y="797.21936"
           id="tspan3763-2-3"
           style="font-weight:bold;font-size:190px;font-family:FreeSans;fill:#2c3a4e">€</tspan></text></g><path
       style="display:inline;fill:none;stroke:#000000;stroke-width:3;stroke-linecap:butt;stroke-linejoin:miter;stroke-miterlimit:4;stroke-dasharray:none;stroke-opacity:1;marker-start:url(#Arrow2Sstart-9);marker-end:none"
       d="m 618.33346,368.21355 c 273.77351,-0.72427 273.04924,-0.72427 273.04924,-0.72427"
       id="path7091-3"
       transform="matrix(0.26458333,0,0,0.26458333,128.69911,50.196382)" /><text
       xml:space="preserve"
       style="font-size:32px;display:inline;fill:#000000"
       x="738.63953"
       y="355.71301"
       id="text658"
       transform="matrix(0.26458333,0,0,0.26458333,128.69911,50.196382)"><tspan
         id="tspan656"
         x="738.63953"
         y="355.71301">520</tspan></text></g><g
     inkscape:groupmode="layer"
     id="layer2"
     inkscape:label="Beschaffungsmarkt"
     style="display:inline"><g
       id="g1153"
       style="display:inline"
       transform="matrix(0.26458333,0,0,0.26458333,34.525596,-61.641233)"><rect
         style="fill:#ffffff;fill-opacity:1;fill-rule:evenodd;stroke:#000000;stroke-width:3;stroke-linecap:butt;stroke-linejoin:miter;stroke-miterlimit:4;stroke-dasharray:none;stroke-opacity:1"
         id="rect13820"
         y="342.36218"
         x="51"
         height="272"
         width="113" /><text
         style="font-style:normal;font-weight:bold;font-size:22px;line-height:0%;font-family:sans-serif;-inkscape-font-specification:'Sans Bold';letter-spacing:0px;word-spacing:0px;writing-mode:lr-tb;fill:#000000;fill-opacity:1;stroke:none"
         xml:space="preserve"
         id="text14621"
         transform="rotate(-90)"
         y="110.43359"
         x="-594.74109"><tspan
           id="tspan14623"
           y="110.43359"
           x="-594.74109"
           style="font-family:sans-serif">Beschaffungsmarkt</tspan></text></g></g><g
     inkscape:groupmode="layer"
     id="layer5"
     inkscape:label="Arbeitsmarkt"
     style="display:inline"><g
       id="g1237"
       style="display:inline"
       transform="matrix(0.26458333,0,0,0.26458333,34.657887,-18.397295)"><rect
         style="fill:#ffffff;fill-opacity:1;fill-rule:evenodd;stroke:#000000;stroke-width:3;stroke-linecap:butt;stroke-linejoin:miter;stroke-miterlimit:4;stroke-dasharray:none;stroke-opacity:1"
         id="rect13820-1"
         y="728.36218"
         x="50.5"
         height="272"
         width="113" /><text
         style="font-style:normal;font-weight:bold;font-size:22px;line-height:0%;font-family:sans-serif;-inkscape-font-specification:'Sans Bold';letter-spacing:0px;word-spacing:0px;fill:#000000;fill-opacity:1;stroke:none"
         xml:space="preserve"
         id="text14633"
         transform="rotate(-90)"
         y="110.81006"
         x="-947.76892"><tspan
           id="tspan14635"
           y="110.81006"
           x="-947.76892"
           style="font-family:sans-serif">Arbeitsmarkt</tspan></text></g></g><g
     inkscape:groupmode="layer"
     id="layer6"
     inkscape:label="Absatzmarkt"
     style="display:inline"><g
       id="g1246"
       style="display:inline"
       transform="matrix(0.26458333,0,0,0.26458333,165.99213,-29.430764)"><rect
         style="fill:#ffffff;fill-opacity:1;fill-rule:evenodd;stroke:#000000;stroke-width:3;stroke-linecap:butt;stroke-linejoin:miter;stroke-miterlimit:4;stroke-dasharray:none;stroke-opacity:1"
         id="rect13820-5"
         y="536.36218"
         x="918.5"
         height="272"
         width="113" /><text
         style="font-style:normal;font-weight:bold;font-size:22px;line-height:0%;font-family:sans-serif;-inkscape-font-specification:'Sans Bold';letter-spacing:0px;word-spacing:0px;fill:#000000;fill-opacity:1;stroke:none"
         xml:space="preserve"
         id="text14640"
         transform="rotate(-90)"
         y="978.97412"
         x="-747.93298"><tspan
           id="tspan14642"
           y="978.97412"
           x="-747.93298"
           style="font-family:sans-serif">Absatzmarkt</tspan></text></g></g><g
     inkscape:groupmode="layer"
     id="layer7"
     inkscape:label="Zeit"
     style="display:none"><g
       id="g1876"
       style="display:inline"
       transform="matrix(0.37983283,0,0,0.36731021,63.120985,-4.3965537)"><path
         style="fill:#0000ff;fill-opacity:1;stroke:#0000ff;stroke-width:4.40315;stroke-linecap:round;stroke-dasharray:none;stroke-opacity:1;marker-end:url(#Arrow2)"
         d="M 56.071991,712.27631 H 932.4209"
         id="path3637" /><text
         xml:space="preserve"
         style="font-size:32px;display:inline;fill:#0000ff;fill-opacity:1;stroke:#0000ff;stroke-opacity:1"
         x="452.73651"
         y="701.12598"
         id="text633"><tspan
           id="tspan631"
           x="452.73651"
           y="701.12598"
           style="fill:#0000ff;fill-opacity:1;stroke:#0000ff;stroke-opacity:1">Zeit</tspan></text></g></g><g
     inkscape:groupmode="layer"
     id="layer9"
     inkscape:label="arbeit"><g
       id="g1695"
       style="display:inline"
       inkscape:label="Arbeit"
       transform="matrix(0.26458333,0,0,0.26458333,75.717628,58.185117)"><title
         id="title1793">Arbeit</title><text
         xml:space="preserve"
         style="font-size:32px;display:inline;fill:#000000"
         x="28.886393"
         y="658.23755"
         id="text608"
         transform="rotate(-21.20497)"><tspan
           id="tspan606"
           x="28.886393"
           y="658.23755">300</tspan></text><g
         transform="matrix(0.108,0,0,0.108,384.56409,509.52592)"
         id="layer1-40"
         style="display:inline"><path
           d="m 319.26,389.45 c -0.33,-0.13 -1.28,-1.15 -2.11,-2.26 -1.22,-1.63 -1.83,-2.21 -3.12,-2.97 -1.98,-1.16 -2.8,-1.99 -3.31,-3.39 -0.59,-1.59 -0.53,-4.53 0.13,-6.47 0.36,-1.08 0.44,-1.58 0.25,-1.65 -0.48,-0.16 -1.23,-1.08 -1.82,-2.25 -0.56,-1.1 -0.58,-1.31 -0.73,-9 -0.18,-9.13 0.26,-17.73 1.25,-24.32 1.76,-11.78 2.02,-14 2.01,-17.88 0,-4.9 -0.54,-20.29 -0.82,-23.64 -0.05,-0.6 -0.17,-2.06 -0.26,-3.25 -0.09,-1.18 -0.2,-2.58 -0.25,-3.09 -0.08,-0.98 -0.51,-6.35 -0.71,-9.03 -0.07,-0.86 -0.23,-2.42 -0.35,-3.48 -0.13,-1.05 -0.4,-3.49 -0.61,-5.4 -0.21,-1.91 -0.43,-3.86 -0.48,-4.32 -0.06,-0.46 -0.28,-2.46 -0.48,-4.44 -0.21,-1.98 -0.43,-3.98 -0.49,-4.44 -0.11,-0.9 -0.6,-5.7 -1.29,-12.6 -0.3,-3.03 -1.29,-9.26 -1.95,-12.25 -0.84,-3.86 -1.95,-7.63 -2.38,-8.11 -0.1,-0.11 -0.25,2.81 -0.33,6.48 -0.34,14.06 -0.95,32.46 -1.53,46.28 -0.38,8.99 -0.5,30.63 -0.19,33.86 0.15,1.64 0.56,6.56 0.73,8.87 0.08,1.06 0.36,2.95 0.62,4.2 0.26,1.26 1.22,5.85 2.13,10.21 2.63,12.58 2.7,13.77 1.67,27.72 -0.48,6.4 -0.51,6.62 -1.08,7.13 l -0.59,0.53 0.61,0.89 c 0.83,1.22 0.91,1.7 0.78,4.37 -0.19,3.8 -1.23,5.61 -3.43,5.94 -1.59,0.24 -1.8,0.5 -2.14,2.64 -0.34,2.21 -0.51,2.67 -1.1,2.99 -0.24,0.13 -1.98,0.57 -3.88,0.99 -3.25,0.73 -3.76,0.78 -9.44,0.87 l -6,0.09 -1.01,-0.86 c -1.17,-1.01 -1.75,-2.62 -1.75,-4.86 0,-1.27 0.13,-1.64 1.24,-3.57 2.36,-4.09 4.52,-8.58 4.27,-8.89 -0.13,-0.15 -1.07,-0.33 -2.09,-0.39 -3.67,-0.22 -6.34,-1.65 -6.63,-3.55 -0.06,-0.46 -0.29,-4.13 -0.5,-8.16 -0.21,-4.03 -0.7,-13.26 -1.09,-20.53 -0.39,-7.26 -0.93,-17.36 -1.19,-22.44 -0.55,-10.5 -0.65,-11.84 -1.95,-27.85 -0.52,-6.4 -1.06,-12.29 -1.2,-13.08 -0.5,-2.87 -3.26,-14.58 -4.3,-18.24 -1.16,-4.1 -3.01,-13.07 -5.54,-26.89 -0.64,-3.49 -0.61,-3.42 -1.5,-3.6 -1.23,-0.24 -2.04,-0.61 -2.19,-1.01 -0.16,-0.4 0.16,-3.35 0.7,-6.55 0.19,-1.12 0.57,-3.5 0.84,-5.28 0.28,-1.78 0.54,-3.53 0.6,-3.88 0.07,-0.42 -0.06,-0.77 -0.37,-1.06 -0.79,-0.71 -2.56,-3.55 -5.07,-8.13 -2.81,-5.13 -2.77,-4.94 -3.55,-15.26 -1.24,-16.35 -1.71,-21.88 -1.94,-23.08 -0.45,-2.37 -0.96,-11.3 -1.11,-19.65 -0.17,-9.25 -0.28,-7.93 2.06,-23.76 0.27,-1.78 0.7,-4.75 0.97,-6.6 1.86,-12.668 2.62,-16.158 4.23,-19.352 1.25,-2.49 2.7,-3.464 8.15,-5.497 6.84,-2.554 18.36,-7.374 19.82,-8.294 0.57,-0.356 1.3,-1.239 2.02,-2.432 0.63,-1.03 2.11,-2.938 3.29,-4.24 1.19,-1.302 2.29,-2.707 2.46,-3.122 0.17,-0.415 0.37,-2.293 0.46,-4.174 l 0.14,-3.419 -0.95,-1.481 c -0.53,-0.814 -1.07,-1.873 -1.2,-2.353 -0.16,-0.617 -0.54,-1.087 -1.28,-1.611 -1.29,-0.907 -2.25,-2.127 -2.42,-3.082 -0.19,-0.988 -0.58,-4.235 -0.75,-6.119 -0.4,-4.48 -0.57,-5.724 -0.91,-6.601 -0.73,-1.865 -0.41,-10.634 0.49,-13.563 0.35,-1.149 0.74,-1.654 3.01,-3.902 1.43,-1.42 3.41,-3.121 4.38,-3.781 1.49,-1.005 1.96,-1.198 2.88,-1.198 0.69,0 1.53,-0.22 2.28,-0.597 3.6,-1.829 6.47,-2.48 8.59,-1.95 0.75,0.19 1.97,0.415 2.69,0.5 2.51,0.292 5.37,0.879 6.08,1.245 0.94,0.484 6.99,6.402 7.67,7.504 0.59,0.937 0.58,0.849 0.72,11.679 l 0.06,4.82 0.7,1.018 0.71,1.017 -0.3,3.737 c -0.45,5.82 -0.63,6.421 -2.8,9.314 -0.69,0.925 -1.32,2.005 -1.41,2.401 -0.08,0.396 0.01,1.692 0.22,2.88 0.31,1.771 0.58,2.504 1.51,4.064 1.27,2.141 3.27,4.413 5.15,5.84 1.52,1.155 9.39,4.645 12.36,5.479 1.16,0.323 3.07,0.859 4.26,1.189 13.05,3.63 13.38,3.744 14.78,5.147 1.03,1.027 1.17,1.314 1.64,3.33 1.29,5.473 2.1,13.984 3.38,35.444 0.96,15.99 1.01,17.89 0.91,32.17 -0.11,14.86 -0.16,15.65 -1.4,23.52 -1.66,10.48 -3.35,15.71 -6.66,20.59 -0.65,0.95 -1.8,2.7 -2.56,3.89 l -1.38,2.15 0.63,6.25 c 0.34,3.44 0.63,7.46 0.63,8.95 l -0.01,2.7 h -0.7 c -0.39,0 -1.24,0.11 -1.88,0.25 l -1.16,0.25 0.04,4.61 c 0.08,8.49 -0.28,16.21 -0.98,20.7 -0.35,2.24 -0.73,5.59 -0.86,7.44 -0.3,4.41 -0.56,7.38 -1.41,16.2 -0.98,10.18 -1.17,15.68 -1.37,38.77 -0.23,26.4 -0.23,27.49 0.02,43.1 0.16,10.28 0.14,13.47 -0.08,13.88 -0.35,0.66 -1.7,1.26 -4.64,2.06 -3.63,0.99 -3.66,1.42 -0.41,5.97 2.72,3.8 4.02,6.28 4.23,8.06 0.18,1.51 -0.1,1.98 -2.12,3.5 -2.08,1.57 -3.23,2.01 -6.29,2.42 -2.95,0.39 -10.73,0.44 -11.67,0.08 z m -5.2,-282.87 c 0.35,-1.59 0.79,-3.86 0.99,-5.04 0.91,-5.491 3.05,-20.809 2.92,-20.932 -0.03,-0.031 -1.07,1.465 -2.32,3.324 -1.25,1.859 -2.53,3.578 -2.83,3.821 -0.55,0.432 -0.58,0.428 -1.56,-0.187 -0.55,-0.345 -1.88,-1.419 -2.95,-2.387 l -1.94,-1.761 -1.87,2.056 -1.88,2.056 1.48,2.124 c 0.81,1.169 1.67,2.645 1.93,3.282 0.25,0.637 1.12,2.562 1.94,4.279 2.18,4.575 4.21,9.385 4.69,11.115 0.24,0.83 0.51,1.43 0.6,1.32 0.1,-0.11 0.46,-1.49 0.8,-3.07 z m -19.77,-2.42 c 0,-1.42 1.01,-6.405 2.08,-10.292 0.47,-1.724 1,-3.835 1.16,-4.691 0.31,-1.549 0.31,-1.561 -0.4,-2.583 -0.39,-0.565 -0.82,-1.35 -0.95,-1.745 -0.14,-0.394 -0.33,-0.717 -0.43,-0.717 -0.09,0 -1.39,1.355 -2.89,3.012 -1.66,1.844 -2.86,2.983 -3.09,2.939 -0.21,-0.04 -0.67,-0.648 -1.02,-1.35 -0.77,-1.538 -1.18,-2.015 -1.18,-1.373 0,1.129 4.1,13.35 5.66,16.89 0.66,1.48 1.06,1.45 1.06,-0.09 z m 1.63,-21.588 c 1.22,-1.453 2.29,-2.895 2.37,-3.207 0.13,-0.491 -0.59,-1.301 -5.45,-6.167 -3.08,-3.082 -5.68,-5.554 -5.77,-5.495 -0.1,0.06 -0.25,0.543 -0.34,1.074 -0.11,0.665 -0.53,1.392 -1.34,2.339 -1.36,1.581 -1.36,1.029 0.02,6.295 0.5,1.914 1.04,4.129 1.19,4.921 0.15,0.792 0.89,2.719 1.64,4.283 l 1.36,2.844 2.05,-2.124 c 1.13,-1.167 3.05,-3.311 4.27,-4.763 z m 18.93,1.56 c 3.2,-4.601 3.34,-4.952 3.79,-9.242 0.54,-5.182 0.56,-5.066 -0.7,-6.603 -0.6,-0.725 -1.19,-1.318 -1.32,-1.318 -0.13,0 -2.7,2.33 -5.7,5.179 -3.01,2.849 -5.89,5.565 -6.42,6.037 -0.92,0.832 -0.94,0.877 -0.6,1.519 0.4,0.737 5.27,5.602 6.96,6.935 0.59,0.471 1.23,0.829 1.41,0.795 0.18,-0.034 1.35,-1.52 2.58,-3.302 z m 111.47,289.35 c -2.61,-0.33 -7.64,-1.37 -8.12,-1.68 -0.31,-0.2 -0.79,-0.86 -1.05,-1.47 -0.44,-1 -0.46,-1.23 -0.19,-2.44 0.29,-1.29 0.46,-1.5 4.89,-6.02 4.55,-4.64 6.83,-7.47 7.97,-9.93 0.5,-1.07 0.58,-1.59 0.58,-3.9 0,-1.86 -0.09,-2.75 -0.3,-2.91 -0.16,-0.13 -1.11,-0.26 -2.1,-0.29 -0.99,-0.02 -1.87,-0.12 -1.96,-0.21 -0.27,-0.28 -1.15,-9.22 -1.5,-15.21 -0.18,-3.12 -0.39,-5.77 -0.46,-5.89 -0.11,-0.19 -0.56,-5.44 -1.47,-17.23 -0.21,-2.66 -0.79,-7.32 -1.31,-10.44 -0.52,-3.11 -1.06,-6.73 -1.21,-8.05 -0.52,-4.74 -0.81,-5.88 -3.76,-15 -3.25,-10.03 -8.24,-24.73 -8.5,-25.04 -0.09,-0.11 -0.24,1.94 -0.33,4.56 -0.09,2.62 -0.27,5.78 -0.39,7.04 -0.13,1.25 -0.34,3.52 -0.47,5.04 -0.13,1.52 -0.52,5.68 -0.86,9.24 -0.34,3.57 -0.71,9.29 -0.82,12.72 -0.47,14.58 -0.73,23.38 -0.98,32.44 -0.14,5.3 -0.36,10.05 -0.47,10.56 -0.11,0.51 -0.39,1.04 -0.61,1.17 -1.27,0.76 -1.35,0.94 -2.17,4.82 -0.44,2.1 -0.81,4.16 -0.81,4.57 -0.01,0.92 -0.47,1.35 -2.17,2.01 -0.72,0.28 -1.91,0.81 -2.64,1.16 -1.27,0.62 -1.46,0.65 -5.4,0.65 -2.82,0 -4.39,-0.11 -5.07,-0.33 -0.93,-0.31 -1.08,-0.29 -2.28,0.26 -0.71,0.33 -2.26,1.32 -3.45,2.21 -3.75,2.81 -4.18,2.95 -11.98,3.86 -5.56,0.64 -6.87,0.57 -9.93,-0.52 -1.37,-0.49 -2.19,-1.86 -2.28,-3.79 -0.05,-1.35 -0.03,-1.41 0.91,-2.23 0.92,-0.81 8,-4.39 12.9,-6.54 1.29,-0.56 2.61,-1.23 2.94,-1.49 0.33,-0.26 1.32,-1.52 2.2,-2.8 0.88,-1.27 1.99,-2.8 2.46,-3.39 0.47,-0.59 0.83,-1.24 0.79,-1.46 -0.04,-0.21 0.16,-1.35 0.44,-2.53 2.35,-10 3.12,-13.54 3.45,-15.82 0.48,-3.4 1.99,-15.58 2.19,-17.77 0.17,-1.87 -0.43,-11.64 -0.95,-15.36 -0.18,-1.32 -0.83,-5.96 -1.44,-10.32 -0.62,-4.36 -1.55,-11.05 -2.08,-14.88 -1.43,-10.32 -3.61,-23.13 -5.24,-30.73 l -1.45,-6.72 -0.51,-7.92 c -0.52,-8.07 -0.73,-17.97 -0.4,-19.13 0.16,-0.59 0.04,-0.74 -1.46,-1.83 -2.55,-1.85 -5.34,-5.88 -6.44,-9.29 l -0.62,-1.92 -0.23,-14.64 c -0.34,-21.48 0.14,-32.47 1.99,-45.61 1.9,-13.564 2.29,-15.164 4.14,-16.866 1.32,-1.22 2.93,-2.28 8.65,-5.716 5.27,-3.171 6.97,-4.567 9.84,-8.098 1.88,-2.313 2.29,-3.278 2.31,-5.354 0,-1.405 -0.4,-2.413 -1.63,-4.056 -1.05,-1.413 -2.31,-3.877 -2.6,-5.129 -0.09,-0.348 -0.24,-0.74 -0.34,-0.872 -0.53,-0.695 -1.24,-4.221 -1.9,-9.362 -0.4,-3.169 -0.9,-6.842 -1.11,-8.162 -0.55,-3.477 -0.5,-6.589 0.12,-8.563 0.84,-2.649 3.52,-5.747 6.54,-7.57 2.18,-1.313 3.58,-1.569 9.24,-1.69 l 5.08,-0.108 2,0.876 c 4.76,2.079 5.27,2.378 6.69,3.899 3.13,3.338 3.77,4.896 4.1,9.874 0.16,2.557 0.32,3.536 0.59,3.812 0.31,0.304 0.36,0.877 0.28,3.162 -0.11,3.387 -0.63,5.382 -2.32,8.858 l -1.21,2.493 v 4.985 l 2.58,2.718 c 1.42,1.494 3.28,3.575 4.14,4.623 l 1.57,1.906 6.42,1.966 c 10.15,3.108 11.44,3.556 14.4,5.006 2.41,1.179 2.92,1.539 3.74,2.605 0.52,0.68 1.12,1.614 1.34,2.076 0.55,1.211 2.94,13.607 3.49,18.127 1.4,11.44 2.46,21.74 2.55,24.6 0.05,1.78 0.21,4.03 0.35,4.99 0.27,1.83 0.35,5.75 0.13,6.47 -0.07,0.23 -0.35,2.14 -0.62,4.23 -0.28,2.1 -0.67,4.15 -0.89,4.55 -0.88,1.72 -9.2,14.05 -10.88,16.13 l -0.77,0.96 0.14,2.4 c 0.08,1.32 0.75,6.56 1.49,11.64 1.17,8.06 1.37,9.98 1.56,15.01 0.12,3.16 0.47,7.8 0.78,10.29 l 0.55,4.54 -0.91,0.36 c -1.07,0.42 -1.21,0.81 -1.63,4.34 -0.5,4.24 -0.17,8.22 0.96,11.56 0.24,0.73 0.6,2.3 0.8,3.48 1.13,6.85 3.65,21.51 4.35,25.32 0.45,2.44 1.2,6.76 1.66,9.6 0.47,2.84 1.17,6.24 1.56,7.56 1.74,5.87 1.71,5.62 1.7,13.84 0,4.14 -0.11,12.44 -0.23,18.45 -0.12,6.01 -0.24,16.59 -0.26,23.52 l -0.03,12.61 0.74,2.28 c 0.58,1.77 0.81,3.05 1.02,5.76 0.16,1.91 0.21,3.98 0.11,4.6 -0.22,1.44 -1.23,2.82 -2.84,3.9 -0.69,0.47 -1.5,1.02 -1.79,1.24 -0.3,0.21 -0.97,0.41 -1.51,0.43 -0.91,0.05 -1.07,0.18 -2.5,1.99 -1.85,2.33 -3.77,4.23 -5.07,5 -1.06,0.63 -4.32,1.74 -7.78,2.65 -2.25,0.59 -5.15,0.88 -6.74,0.68 z m -208.84,-10.32 c -0.33,-0.06 -2.17,-0.32 -4.08,-0.58 -3.11,-0.43 -3.7,-0.59 -5.5,-1.48 -1.11,-0.56 -3.11,-1.81 -4.44,-2.78 -3.06,-2.24 -3.03,-2.23 -6.65,-3.26 -3.66,-1.05 -5.4,-1.82 -6.35,-2.8 -0.67,-0.71 -0.71,-0.87 -0.79,-3.11 -0.09,-2.53 0.3,-4.47 1.18,-5.91 0.26,-0.41 0.46,-0.82 0.46,-0.9 0,-0.08 -0.44,-0.22 -0.97,-0.31 -1.47,-0.23 -1.63,-0.5 -1.38,-2.29 0.28,-1.93 0.06,-4.41 -0.58,-6.54 -0.48,-1.59 -0.49,-1.99 -0.34,-9.84 0.12,-5.9 0.06,-10.56 -0.21,-16.7 -0.36,-8.28 -0.56,-40.3 -0.25,-40.8 0.08,-0.11 0.02,-4.78 -0.12,-10.37 -0.2,-7.81 -0.4,-11.4 -0.85,-15.47 -0.32,-2.91 -0.65,-5.87 -0.71,-6.57 -0.07,-0.7 -0.61,-3.23 -1.2,-5.62 -0.59,-2.39 -1.07,-4.53 -1.07,-4.76 0,-0.22 -0.1,-0.46 -0.22,-0.54 -0.12,-0.07 -0.16,0.26 -0.1,0.77 0.07,0.5 -0.11,2.14 -0.39,3.66 -1.04,5.65 -1.22,6.64 -1.45,8.16 -0.13,0.86 -0.33,2.16 -0.46,2.88 -0.3,1.79 -2.54,10.49 -4.74,18.37 -1,3.56 -1.97,7.07 -2.16,7.8 -0.19,0.73 -1.52,5.64 -2.95,10.92 -3.56,13.09 -3.86,14.24 -4.09,15.48 -1.31,7.31 -1.98,11.75 -2.3,15.19 -0.21,2.28 -0.53,5.49 -0.7,7.14 -0.17,1.65 -0.32,5.92 -0.33,9.48 -0.02,3.57 -0.1,9.51 -0.19,13.2 -0.14,6.16 -0.19,6.75 -0.6,7.04 -0.39,0.28 -0.44,0.67 -0.44,3.56 0,1.98 -0.11,3.44 -0.28,3.76 -0.15,0.29 -0.72,0.96 -1.27,1.49 -0.54,0.52 -1.78,1.84 -2.74,2.92 l -1.75,1.97 -1.26,-0.05 c -1.24,-0.04 -1.31,-0.01 -2.78,1.35 -2.35,2.18 -4.66,3.7 -6.08,4 -1.39,0.3 -4.46,0.16 -8.21,-0.36 -1.32,-0.18 -3.02,-0.39 -3.77,-0.45 -2.21,-0.2 -2.9,-0.6 -3.54,-2.08 -0.43,-1.01 -0.52,-1.56 -0.42,-2.54 0.16,-1.5 0.56,-2.29 2.33,-4.5 0.72,-0.91 1.81,-2.28 2.4,-3.03 0.59,-0.75 1.98,-2.44 3.08,-3.74 1.95,-2.31 3.55,-4.93 3.29,-5.37 -0.08,-0.12 -0.73,-0.35 -1.46,-0.51 -0.73,-0.16 -1.37,-0.36 -1.41,-0.44 -0.04,-0.07 0.07,-1.49 0.24,-3.14 0.41,-3.86 0.5,-22.71 0.15,-28.92 -0.15,-2.51 -0.34,-8.45 -0.42,-13.21 -0.16,-9.07 -0.19,-8.48 1.09,-21.12 1.04,-10.14 1.32,-14.77 1.55,-25.2 0.14,-6.02 0.49,-14.48 0.74,-17.58 l 0.12,-1.5 -0.79,-0.33 c -0.43,-0.18 -1.69,-1.02 -2.79,-1.86 -2.36,-1.81 -3.23,-3.25 -3.65,-6.03 -0.29,-1.93 -0.34,-7.73 -0.09,-11.14 l 0.16,-2.18 -0.98,-0.16 c -0.54,-0.09 -1.36,-0.34 -1.83,-0.56 l -0.84,-0.4 v -12.74 c 0,-7.01 -0.07,-19.11 -0.15,-26.9 -0.15,-13.71 0.08,-26.68 0.63,-34.81 0.12,-1.85 0.29,-4.71 0.36,-6.36 0.28,-6.26 0.65,-10.83 1.22,-15.24 0.33,-2.51 0.81,-6.29 1.07,-8.4 0.73,-5.97 1.16,-8.746 1.43,-9.248 0.48,-0.888 3.83,-2.864 13.44,-7.914 7.35,-3.858 9.45,-5.049 13.93,-7.877 6.3,-3.982 6.88,-4.367 7.26,-4.801 0.2,-0.231 0.49,-1.443 0.67,-2.762 0.26,-1.946 0.26,-2.505 0,-3.241 -0.45,-1.251 -1.17,-2.209 -1.67,-2.209 -0.24,0 -0.94,-0.664 -1.59,-1.501 -0.95,-1.222 -1.29,-1.945 -1.85,-3.9 -0.9,-3.156 -1.15,-6.549 -0.55,-7.46 0.49,-0.747 0.51,-1.016 0.82,-7.663 0.3,-6.497 0.68,-7.889 3,-10.733 1.24,-1.521 3.73,-3.489 4.67,-3.69 0.35,-0.074 1.66,-0.518 2.92,-0.987 l 2.28,-0.852 3.96,0.139 c 7.14,0.25 9.46,1.141 13.46,5.187 3.32,3.35 3.92,4.508 3.94,7.564 0,1.194 -0.14,3.634 -0.32,5.422 -0.32,3.216 -0.31,3.26 0.22,4.16 0.51,0.867 0.53,1.064 0.37,4.31 -0.27,5.343 -1.13,8.323 -2.43,8.323 -0.64,0 -0.88,0.59 -1.29,3.121 -0.47,2.946 -0.58,5.645 -0.28,6.562 0.31,0.935 2.04,2.633 4.93,4.839 1.54,1.172 2.44,1.564 10.69,4.646 4.95,1.851 11.1,4.325 13.67,5.497 3.94,1.795 4.75,2.251 5.13,2.892 0.57,0.985 3.67,11.766 3.87,13.496 0.15,1.3 0.63,4.76 1.1,8.04 0.13,0.92 0.29,2.11 0.36,2.64 0.06,0.53 0.28,2.09 0.47,3.48 0.2,1.38 0.47,3.28 0.6,4.2 0.65,4.57 1.35,18.76 1.8,36.13 0.2,7.72 0.48,17.82 0.61,22.44 0.13,4.62 0.31,12.42 0.39,17.34 l 0.16,8.93 -0.7,0.27 c -0.38,0.15 -1.33,0.23 -2.09,0.17 -1.1,-0.07 -1.44,-0.01 -1.59,0.28 -0.11,0.21 -0.26,1.6 -0.35,3.09 -0.11,1.83 -0.32,3.12 -0.64,3.96 -0.27,0.69 -0.69,2.33 -0.94,3.65 -0.83,4.4 -0.9,4.58 -2.91,7.06 -2.53,3.13 -3.25,3.78 -6.58,5.9 -1.59,1.01 -2.97,1.92 -3.07,2.02 -0.1,0.1 -0.05,3.23 0.1,6.95 0.36,8.31 -0.05,30.68 -0.64,35.28 -0.2,1.54 -0.53,4.1 -0.73,5.68 -0.57,4.42 -1.01,7.43 -1.54,10.32 -0.26,1.46 -0.64,3.67 -0.84,4.93 -0.2,1.25 -0.53,3.14 -0.72,4.2 -0.2,1.05 -0.46,2.89 -0.59,4.08 -0.25,2.36 -0.79,6.84 -1.35,11.16 -0.41,3.22 -0.78,10.05 -1.02,18.82 l -0.16,6.21 -1.14,0.34 c -1.26,0.36 -1.26,0.36 -0.87,1.11 1.24,2.33 5.93,6.45 12.2,10.74 3.32,2.27 5.43,3.94 6.09,4.84 0.29,0.39 0.52,1.17 0.59,1.97 0.1,1.25 0.06,1.38 -0.65,2.04 -0.91,0.85 -4.09,2.1 -6.24,2.45 -1.77,0.28 -5.82,0.47 -6.74,0.3 z m 328.14,-10.19 c -2.05,-0.65 -2.52,-0.71 -4.74,-0.63 -1.55,0.06 -2.6,-0.01 -2.81,-0.17 -0.18,-0.15 -0.4,-0.86 -0.49,-1.58 -0.29,-2.61 -0.59,-4.17 -0.83,-4.41 -0.14,-0.15 -0.25,-1.5 -0.25,-3.2 v -2.96 h -0.83 c -1.33,0 -1.6,-0.64 -1.74,-4.25 -0.09,-2.52 -0.24,-3.48 -0.83,-5.35 -0.85,-2.7 -0.9,-3.82 -0.24,-5.29 0.28,-0.6 0.57,-1.52 0.65,-2.04 0.15,-0.93 0.11,-1 -1.69,-2.87 l -1.84,-1.92 0.15,-3.96 c 0.08,-2.18 0.24,-4.62 0.35,-5.43 0.14,-0.98 0.12,-2.02 -0.07,-3.15 -0.24,-1.41 -0.44,-1.86 -1.18,-2.68 -0.49,-0.54 -0.9,-1.01 -0.91,-1.04 -0.02,-0.07 -0.19,-1.64 -0.9,-8.16 -0.28,-2.48 -0.56,-4.86 -0.63,-5.29 -0.07,-0.42 -0.24,-2.11 -0.36,-3.74 -0.22,-2.84 -0.27,-3.04 -1.17,-4.57 -1.29,-2.18 -1.14,-1.47 -1.82,-8.67 -0.2,-2.06 -0.84,-6.08 -1.43,-9 -1.2,-5.87 -1.5,-7.75 -2.66,-16.8 -0.62,-4.86 -1.04,-7.15 -1.89,-10.33 -1.2,-4.5 -3.76,-15.2 -3.77,-15.74 0,-0.64 -0.41,-1.05 -0.75,-0.77 -0.4,0.33 -0.14,10.28 0.41,16.27 1.02,10.96 1.29,14.37 1.53,19.09 0.44,8.81 0.75,13.52 0.98,14.52 0.12,0.53 0.75,2.9 1.41,5.28 0.87,3.2 1.28,5.23 1.56,7.84 0.21,1.94 0.77,6.1 1.25,9.25 0.83,5.48 0.86,5.9 0.74,10.28 l -0.13,4.56 0.97,3 0.97,3 -0.1,3.72 c -0.09,3.21 -0.17,3.86 -0.61,4.71 -0.28,0.54 -0.47,1.18 -0.42,1.44 0.05,0.25 0.27,1.19 0.48,2.09 0.34,1.44 0.36,2.34 0.14,7.32 -0.14,3.13 -0.18,5.95 -0.1,6.27 0.13,0.47 -0.01,0.72 -0.7,1.32 l -0.86,0.73 -0.37,4.61 c -0.27,3.56 -0.47,4.86 -0.85,5.73 l -0.5,1.12 -3.12,-0.09 c -2.77,-0.07 -3.14,-0.04 -3.26,0.32 -0.07,0.22 -0.5,0.74 -0.96,1.14 l -0.84,0.74 h -6.31 c -3.48,0 -7.81,-0.07 -9.63,-0.16 l -3.3,-0.16 -0.46,-0.74 c -0.38,-0.62 -0.43,-1 -0.3,-2.3 0.24,-2.4 1.14,-3.95 3.38,-5.83 2.09,-1.75 5.38,-5.07 5.79,-5.84 0.16,-0.31 0.21,-1.14 0.12,-2.2 -0.12,-1.49 -0.21,-1.72 -0.67,-1.83 -1.57,-0.4 -1.94,-5.23 -0.93,-12.19 l 0.37,-2.56 -0.96,-1.64 c -0.52,-0.9 -1.47,-3.1 -2.1,-4.88 l -1.15,-3.24 0.05,-3.97 0.06,-3.98 -1.24,-4.31 c -1.18,-4.1 -1.25,-4.45 -1.27,-7.31 -0.02,-2.25 0.07,-3.32 0.39,-4.3 0.69,-2.18 0.57,-3.15 -0.65,-5 l -1.06,-1.62 -0.62,-4.56 c -0.35,-2.51 -0.84,-6.07 -1.11,-7.92 -0.26,-1.85 -0.68,-5.31 -0.94,-7.68 -0.26,-2.38 -0.75,-5.78 -1.09,-7.55 -0.87,-4.61 -2.97,-13.19 -3.47,-14.18 -0.24,-0.46 -0.94,-3.27 -1.56,-6.24 -1.08,-5.13 -2.26,-10.34 -2.79,-12.3 -0.19,-0.73 -0.35,-0.9 -0.83,-0.9 -0.33,0 -0.8,0.24 -1.05,0.54 -0.25,0.3 -0.7,0.84 -1.02,1.21 -0.45,0.54 -0.79,0.68 -1.71,0.73 -0.88,0.05 -1.3,0.22 -1.8,0.72 -2.11,2.11 -2.66,2.42 -4.43,2.52 -1.11,0.07 -2.19,-0.04 -3.21,-0.32 -1.4,-0.38 -1.68,-0.57 -3.25,-2.25 -2.71,-2.89 -2.6,-2.56 -2.6,-7.79 0,-4.23 -0.03,-4.55 -0.48,-4.92 -0.47,-0.4 -0.48,-0.75 -0.54,-23.57 -0.06,-26.3 -0.01,-27.59 2,-47.05 0.27,-2.57 0.69,-7.27 0.94,-10.44 0.25,-3.17 0.61,-7.33 0.81,-9.24 0.19,-1.92 0.42,-4.29 0.49,-5.28 0.89,-11.72 1.12,-13.11 2.43,-14.908 0.98,-1.355 6.1,-5.912 8.21,-7.317 1.09,-0.724 3.73,-2.375 5.88,-3.669 5.85,-3.521 7.33,-4.545 9.23,-6.392 l 1.73,-1.683 -0.2,-2.618 -0.2,-2.617 -1.21,-1.104 c -1.46,-1.348 -2.14,-2.468 -2.34,-3.874 -0.17,-1.26 -0.4,-1.91 -1.47,-4.275 -1.57,-3.446 -2.02,-5.646 -2.24,-10.919 -0.28,-6.916 0.18,-9.123 2.51,-11.991 0.56,-0.688 1.08,-1.52 1.17,-1.85 0.28,-1.114 1.06,-2.074 3.28,-4.066 2.62,-2.352 3.86,-2.952 7.15,-3.476 2.23,-0.354 2.76,-0.356 5.87,-0.022 4.63,0.497 5.62,0.811 6.96,2.224 0.6,0.627 1.38,1.334 1.72,1.572 0.35,0.238 1.62,1.751 2.83,3.361 1.22,1.61 2.29,2.988 2.4,3.062 0.52,0.351 1.4,1.819 1.4,2.325 0,0.31 0.18,0.911 0.4,1.333 0.22,0.423 0.65,2.055 0.97,3.627 0.55,2.772 0.55,2.915 0.18,4.74 -0.46,2.255 -1.82,6.373 -2.39,7.244 -0.28,0.439 -0.45,1.353 -0.54,3.079 -0.13,2.413 -0.15,2.471 -1.02,3.429 -1.38,1.531 -1.68,2.09 -1.68,3.138 0,0.836 0.14,1.118 1.02,1.953 2.99,2.866 4.89,3.789 14.32,6.963 8.86,2.98 18.3,6.473 19.29,7.136 1.39,0.932 2.24,2.514 2.67,4.995 0.93,5.242 1.53,7.386 4.84,17.15 5.28,15.58 6.75,20.29 7.05,22.48 0.14,1.08 0.48,4.94 0.74,8.57 0.27,3.63 0.54,6.98 0.61,7.45 0.21,1.38 -0.34,12.54 -0.84,16.8 -0.25,2.18 -0.63,5.63 -0.84,7.68 -0.98,9.27 -3.25,26.01 -3.59,26.34 -0.07,0.08 -0.38,0.26 -0.68,0.42 -0.3,0.16 -0.52,0.4 -0.49,0.53 0.09,0.5 -0.43,4.78 -0.68,5.54 -0.17,0.53 -0.59,0.98 -1.29,1.39 -1.07,0.63 -3.24,2.78 -3.24,3.22 0,0.13 -0.38,0.66 -0.84,1.17 -0.58,0.64 -1.48,1.2 -3,1.85 l -2.17,0.93 0.01,4.21 c 0,13.19 1.48,32.66 3.36,44.31 1.15,7.12 1.23,7.42 2.13,9.08 0.87,1.59 2.4,6.16 3.61,10.81 0.95,3.66 1.27,9.31 1.32,23.31 0.04,10.95 0.11,13.4 0.47,15.82 0.23,1.57 0.61,5.39 0.84,8.49 l 0.41,5.64 -1.03,0.46 c -0.97,0.43 -1.03,0.52 -1.03,1.4 0,0.88 0.17,1.12 2.22,3.17 1.8,1.81 2.48,2.7 3.6,4.77 1.36,2.49 2.04,4.78 1.72,5.78 -0.2,0.64 -1.68,1.38 -4.04,2.02 -1.9,0.52 -2.82,0.61 -7.1,0.7 l -4.93,0.11 z m -463.53,-0.45 c 0,-0.18 -0.232,-0.52 -0.516,-0.76 -0.374,-0.33 -0.419,-0.45 -0.161,-0.45 0.401,0 1.086,1.11 0.838,1.36 -0.088,0.08 -0.161,0.02 -0.161,-0.15 z m 37.341,-0.56 c 0.09,-0.24 0.23,-0.37 0.3,-0.3 0.07,0.07 0,0.27 -0.16,0.43 -0.24,0.24 -0.27,0.21 -0.14,-0.13 z m -59.665,-0.16 c 0,-0.14 0.108,-0.25 0.24,-0.25 0.132,0 0.24,0.04 0.24,0.1 0,0.06 -0.108,0.18 -0.24,0.26 -0.132,0.08 -0.24,0.03 -0.24,-0.11 z m 41.925,0.07 c -0.08,-0.09 -0.16,-2.09 -0.16,-4.44 0,-3.87 0.05,-4.33 0.45,-4.73 0.25,-0.25 0.6,-0.51 0.78,-0.57 0.23,-0.08 0.02,-0.43 -0.69,-1.14 -0.98,-0.98 -1.02,-1.08 -1.02,-2.52 0,-0.82 -0.07,-2.8 -0.15,-4.41 l -0.16,-2.92 h -1.782 l -1.83,-4.88 c -1.776,-4.73 -2.665,-8.07 -2.904,-10.91 -1.288,-15.3 -1.861,-42.26 -1.138,-53.58 0.736,-11.51 0.731,-11.01 0.108,-12.6 -3.872,-9.92 -5.29,-13.37 -8.88,-21.61 -4.165,-9.55 -5.025,-11.27 -6.184,-12.36 -1.127,-1.06 -1.186,-0.63 -0.844,6.17 0.417,8.28 0.194,38.68 -0.339,46.16 -0.328,4.6 -0.329,5.89 -0.01,11.88 0.196,3.7 0.407,7.13 0.469,7.64 0.062,0.5 0.281,2.93 0.488,5.4 0.382,4.57 0.497,5.18 1.915,10.25 2.01,7.18 4.192,16.23 4.34,18.01 0.172,2.06 -0.079,4.55 -0.904,8.95 l -0.509,2.71 -1.454,1.42 -1.455,1.42 -0.099,3.18 c -0.066,2.13 -0.207,3.35 -0.426,3.68 -0.228,0.35 -0.265,0.72 -0.122,1.22 0.113,0.39 0.226,1.84 0.252,3.22 0.038,2.05 0.127,2.61 0.482,3 0.239,0.26 0.559,0.72 0.711,1.01 0.264,0.51 0.241,0.53 -0.51,0.38 -0.432,-0.08 -0.866,-0.27 -0.963,-0.41 -0.107,-0.16 -0.177,-0.1 -0.18,0.16 -0.003,0.38 -0.176,0.41 -1.504,0.29 -0.825,-0.08 -3.012,-0.13 -4.861,-0.12 -1.848,0.01 -3.576,0.02 -3.84,0.02 -5.011,0.02 -6.341,-0.03 -6.478,-0.25 -0.243,-0.39 -0.602,-0.04 -0.428,0.42 0.133,0.36 0.101,0.37 -0.241,0.1 -0.26,-0.22 -0.655,-0.27 -1.155,-0.16 -0.46,0.1 -0.705,0.08 -0.62,-0.06 0.082,-0.13 -0.891,-0.34 -2.31,-0.49 -2.031,-0.22 -2.523,-0.36 -2.871,-0.79 -0.231,-0.28 -0.42,-0.71 -0.42,-0.95 0,-0.24 -0.346,-1 -0.769,-1.68 -0.687,-1.1 -0.771,-1.43 -0.78,-3.08 l -0.012,-1.84 1.43,-1.8 c 0.787,-0.99 2.055,-2.46 2.818,-3.27 1.602,-1.71 1.726,-1.98 2.223,-4.82 0.485,-2.77 0.467,-3.92 -0.118,-7.77 -0.738,-4.86 -1.045,-5.75 -2.537,-7.43 -0.702,-0.78 -1.404,-1.67 -1.559,-1.96 -0.426,-0.79 -0.72,-7.89 -0.644,-15.55 0.065,-6.53 -0.223,-10.91 -1.129,-17.18 -0.058,-0.4 -0.328,-3.05 -0.6,-5.88 -0.272,-2.83 -0.548,-5.47 -0.614,-5.87 -0.066,-0.4 -0.219,-2.34 -0.34,-4.32 -0.144,-2.34 -0.428,-4.44 -0.811,-6 -0.79,-3.22 -2.808,-10.74 -2.936,-10.95 -0.056,-0.09 -1.524,-5.44 -3.262,-11.89 l -3.16,-11.73 -0.038,-4.56 -0.038,-4.56 -3.264,-0.15 c -1.795,-0.09 -3.367,-0.22 -3.494,-0.3 -0.126,-0.08 -1.242,-0.3 -2.48,-0.49 -2.424,-0.37 -4.237,-1.05 -5.035,-1.89 -0.275,-0.29 -1.352,-1.8 -2.392,-3.35 -1.556,-2.32 -2.027,-3.26 -2.65,-5.26 -0.679,-2.19 -0.745,-2.66 -0.637,-4.56 l 0.121,-2.12 h -2.071 l -0.132,-1.02 c -0.073,-0.57 -0.3,-2.97 -0.504,-5.35 -0.204,-2.37 -0.415,-4.64 -0.469,-5.04 -0.054,-0.39 -0.273,-2.34 -0.487,-4.32 -0.214,-1.98 -0.422,-3.87 -0.462,-4.2 -0.315,-2.59 -0.409,-3.81 -0.621,-8.04 -0.133,-2.64 -0.307,-5.79 -0.388,-7 -0.204,-3.05 -0.241,-13.22 -0.051,-14.24 0.085,-0.47 0.335,-2.41 0.554,-4.33 0.219,-1.91 0.445,-3.8 0.502,-4.2 0.54,-3.78 1.061,-18.01 1.066,-29.12 0.002,-4.64 0.357,-7.76 1.905,-16.726 0.694,-4.025 0.715,-4.091 1.551,-4.817 1.196,-1.041 4.72,-2.942 8.789,-4.743 9.85,-4.359 20.96,-9.922 22.036,-11.033 0.765,-0.79 0.793,-0.889 0.837,-2.955 0.042,-1.987 -0.009,-2.242 -0.732,-3.631 -0.937,-1.801 -2.217,-5.24 -2.217,-5.958 0,-1.153 -0.485,-1.971 -1.26,-2.126 -0.414,-0.083 -1.085,-0.514 -1.492,-0.958 -0.97,-1.059 -1.818,-4.462 -1.813,-7.27 0.004,-1.77 0.059,-2.007 0.566,-2.405 0.525,-0.413 0.572,-0.664 0.73,-3.855 0.356,-7.187 0.822,-9.284 2.691,-12.094 1.924,-2.895 2.354,-3.268 5.489,-4.768 4.635,-2.216 4.783,-2.256 7.881,-2.086 6.487,0.356 11.37,2.083 14.442,5.106 1.402,1.38 2.106,2.694 3.231,6.034 0.735,2.182 0.746,2.278 0.708,6.622 -0.038,4.401 -0.037,4.41 0.598,5.344 0.716,1.053 0.777,1.843 0.399,5.13 -0.213,1.852 -0.331,2.167 -1.378,3.685 -1.747,2.53 -2.001,3.12 -2.211,5.143 -0.107,1.028 -0.382,2.506 -0.612,3.284 -0.636,2.155 -0.42,3.437 0.908,5.38 2.006,2.935 2.85,3.417 8.091,4.626 1.65,0.38 7.969,2.036 14.039,3.68 10.35,2.799 11.08,3.033 11.65,3.711 0.76,0.921 2.74,5.449 4.21,9.634 1.07,3.061 1.15,3.467 1.45,7.326 0.3,3.83 0.58,5.7 1.77,11.88 0.53,2.77 2.09,11.96 2.88,17.04 0.28,1.78 0.78,4.67 1.11,6.41 0.6,3.12 0.61,3.29 0.52,12.72 l -0.09,9.56 -2.33,13.65 c -1.28,7.5 -2.32,13.68 -2.32,13.73 0,0.04 -0.61,0.11 -1.35,0.15 l -1.36,0.07 0.01,1.32 c 0,0.73 0.08,2.78 0.17,4.56 0.17,3.19 -0.15,7.02 -0.85,10.09 -0.25,1.11 0.2,4.09 3.11,20.4 0.53,2.97 1.13,6.37 1.34,7.56 0.2,1.19 0.53,3.03 0.73,4.08 0.36,1.91 0.64,4.32 1.56,13.33 0.26,2.57 0.6,5.59 0.74,6.72 0.41,3.05 0.6,56.92 0.22,60.17 -0.2,1.69 -0.58,3.25 -1.22,5.03 -0.69,1.9 -0.94,2.96 -0.94,3.99 0,0.77 -0.29,2.54 -0.64,3.94 -0.6,2.4 -0.68,2.55 -1.42,2.86 -0.73,0.31 -0.76,0.38 -0.58,1.19 0.1,0.47 0.48,1.44 0.83,2.16 0.61,1.24 1.2,1.85 5,5.19 1.18,1.04 2.09,3.45 2.09,5.53 0,1.44 -0.02,1.49 -1.11,2.49 -0.74,0.68 -1.41,1.06 -2.01,1.16 -1.87,0.3 -3.45,1.09 -4.16,2.08 -0.37,0.52 -0.86,0.95 -1.09,0.95 -0.23,0 -0.55,0.13 -0.71,0.28 -0.22,0.23 -0.28,0.2 -0.28,-0.12 0,-0.47 -0.27,-0.52 -0.68,-0.12 -0.21,0.22 -0.28,0.22 -0.28,0.01 0,-0.2 -0.17,-0.22 -0.64,-0.04 -0.35,0.13 -0.69,0.18 -0.76,0.11 -0.07,-0.07 0.02,-0.12 0.2,-0.12 0.17,0 0.26,-0.06 0.19,-0.13 -0.07,-0.07 -0.41,-0.02 -0.76,0.11 -0.47,0.18 -0.63,0.17 -0.64,-0.05 0,-0.19 -0.09,-0.16 -0.24,0.07 -0.15,0.22 -0.3,0.27 -0.41,0.12 -0.25,-0.33 -2.79,-0.38 -2.98,-0.06 -0.11,0.18 -0.38,0.16 -0.9,-0.05 -0.54,-0.23 -0.92,-0.24 -1.45,-0.05 -0.48,0.16 -0.78,0.17 -0.87,0.01 -0.1,-0.15 -0.25,-0.15 -0.44,0.01 -0.32,0.26 -2.26,0.22 -2.71,-0.06 -0.15,-0.09 -0.53,-0.07 -0.85,0.05 -0.35,0.13 -0.73,0.13 -0.98,-0.01 -0.25,-0.14 -0.56,-0.14 -0.85,0.02 -0.25,0.13 -0.54,0.16 -0.64,0.07 -0.1,-0.1 -0.13,0.12 -0.06,0.49 0.13,0.7 0.11,0.75 -0.14,0.5 z m 9.64,-2.61 c -0.07,-0.07 -0.21,0.06 -0.3,0.3 -0.13,0.34 -0.1,0.37 0.14,0.13 0.16,-0.16 0.23,-0.36 0.16,-0.43 z"
           id="path2689-0" /></g><path
         d="m 197.20834,601.02835 c 306,-153 306,-153 306,-153"
         id="path14685"
         style="display:inline;fill:none;stroke:#000000;stroke-width:3;stroke-linecap:butt;stroke-linejoin:miter;stroke-miterlimit:4;stroke-dasharray:none;stroke-opacity:1;marker-start:none;marker-end:url(#Arrow2Send)" /></g></g><g
     inkscape:groupmode="layer"
     id="layer10"
     inkscape:label="loehne"
     style="display:inline"><g
       transform="matrix(0.02580741,-0.01226818,0.01226818,0.02580741,120.92738,173.97063)"
       id="layer1-45"
       style="display:inline"><path
         d="m 514.29,450.93 c 0,46.55 -37.736,84.286 -84.286,84.286 -46.55,0 -84.286,-37.736 -84.286,-84.286 0,-46.55 37.736,-84.286 84.286,-84.286 46.55,0 84.286,37.736 84.286,84.286 z"
         transform="translate(61.429,148.57)"
         id="path3757-8"
         style="fill:#ffffff;stroke:#2c3a4e;stroke-width:20;stroke-linecap:round;stroke-miterlimit:0" /><rect
         width="505.70999"
         height="202.86"
         rx="0"
         ry="0"
         x="157.14"
         y="626.65002"
         id="rect2985-8"
         style="fill:#ffffff;stroke:#2c3a4e;stroke-width:20;stroke-linecap:square" /><path
         d="m 277.14,330.93 c 0,35.504 -28.782,64.286 -64.286,64.286 -35.504,0 -64.286,-28.782 -64.286,-64.286 0,-35.504 28.782,-64.286 64.286,-64.286 35.504,0 64.286,28.782 64.286,64.286 z"
         transform="translate(118.57,194)"
         id="path3755-9"
         style="fill:#ffffff;stroke:#2c3a4e;stroke-width:17;stroke-linecap:round;stroke-miterlimit:0" /><path
         d="m 442.86,272.36 c 0,26.825 -21.746,48.571 -48.571,48.571 -26.825,0 -48.571,-21.746 -48.571,-48.571 0,-26.825 21.746,-48.571 48.571,-48.571 26.825,0 48.571,21.746 48.571,48.571 z"
         transform="translate(56,174)"
         id="path3759-1"
         style="fill:#ffffff;stroke:#2c3a4e;stroke-width:14;stroke-linecap:round;stroke-miterlimit:0" /><text
         x="397.14285"
         y="797.21936"
         id="text3761-3"
         xml:space="preserve"
         style="font-size:12px;line-height:0%;font-family:sans-serif;text-align:center;letter-spacing:0px;word-spacing:0px;text-anchor:middle;fill:#000000"><tspan
           x="397.14285"
           y="797.21936"
           id="tspan3763-2"
           style="font-weight:bold;font-size:190px;font-family:FreeSans;fill:#2c3a4e">€</tspan></text></g><path
       d="m 185.45759,583.29832 c 306,-153 306,-153 306,-153"
       id="path14685-9"
       style="display:inline;fill:none;stroke:#000000;stroke-width:3;stroke-linecap:butt;stroke-linejoin:miter;stroke-miterlimit:4;stroke-dasharray:none;stroke-opacity:1;marker-start:url(#Arrow2Sstart-3);marker-end:none"
       inkscape:label="path14685-9"
       transform="matrix(0.26458333,0,0,0.26458333,71.799884,49.723551)"><title
         id="title1795">path14685-9</title></path><text
       xml:space="preserve"
       style="display:inline;font-size:32px;fill:#000000"
       x="138.29189"
       y="581.89734"
       id="text604"
       transform="matrix(0.24666904,-0.09570123,0.09570123,0.24666904,71.799882,49.723554)"><tspan
         id="tspan602"
         x="138.29189"
         y="581.89734">300</tspan></text></g><g
     inkscape:groupmode="layer"
     id="layer11"
     inkscape:label="betriebsmittel"><g
       id="g1509"
       style="display:inline"
       transform="matrix(0.26458333,0,0,0.26458333,51.777723,11.339292)"><g
         transform="matrix(0.07939978,0,0,0.07580701,310.20753,286.61794)"
         id="g3367"
         style="display:inline"><path
           d="m 130.28125,382.9375 c -10.33683,0 -19.55592,32.46794 -25.75,52.15625 h 49.5 v -17.625 h -14.0625 v -31.375 h 14.0625 v -3.15625 z m 85.125,0 c 0.0394,1.05184 0.0609,2.10193 0.0937,3.15625 h 17.21875 v 31.375 h -16.90625 c -0.0233,6.09925 -0.0579,12.07165 -0.0625,17.625 h 63.65625 c -0.10644,-5.829 -0.10464,-11.72034 -0.0625,-17.625 h -20.0625 -0.21875 v -31.375 h 0.21875 18.34375 c 2.5e-4,-1.05444 0.005,-2.10773 0,-3.15625 H 215.4062 Z m 121.40625,0 v 3.15625 h 15 0.25 v 31.375 h -0.25 -17 v 17.625 h 66.125 c -0.12739,-5.75292 -0.11475,-11.67803 -0.0625,-17.625 h -22.25 -0.21875 -0.0312 v -31.375 h 0.0312 0.21875 18.625 c 0.005,-1.0551 0.0312,-2.11712 0.0312,-3.15625 h -60.46875 z m 119.65625,0 v 3.15625 h 14.6875 0.25 v 31.375 h -0.25 H 456.5 v 17.625 h 61.5625 c -0.0115,-5.86344 -0.005,-11.74408 0,-17.625 h -20.34375 v -31.375 h 18.375 c 4.4e-4,-1.049 0,-2.10858 0,-3.15625 z m 122.84375,0 c 0.017,1.04841 0.0168,2.10577 0.0312,3.15625 h 11.15625 v 31.375 H 579.5312 c 0.002,5.87214 0,11.73968 0,17.625 h 51.09375 c -6.19403,-19.68831 -15.41317,-52.15625 -25.75,-52.15625 h -25.5625 z M 36.90625,419.90625 v 120.875 l 12.65625,-16.75 h 1.34375 v -4.96875 h 22.25 v 4.96875 h 1.78125 l 12.6875,16.75 v -51.75 H 96.5 c -0.02597,1.9629 -0.0625,4.10511 -0.0625,5.59375 v 133.84375 c 0,9.31876 0.522794,18.28931 1.46875,26.75 H 88.6875 v -71.8125 L 75.5,606.65625 H 49.09375 l -13.1875,-23.25 V 751.1875 l 13.1875,-23.25 H 75.5 l 13.1875,23.25 V 679.375 h 13.4375 c 6.05835,24.62228 16.37707,40.78125 28.15625,40.78125 h 203.625 v -90.3125 h -0.9375 c -6.74103,0 -12.15625,-5.44647 -12.15625,-12.1875 v -6.46875 c 0,-6.74103 5.41522,-12.1875 12.15625,-12.1875 H 333.75 v -18.3125 c 0,0 -6.25,-7.29977 -6.25,-11.71875 0,-2.01595 1.30358,-4.60178 2.71875,-6.84375 0.29074,-2.04111 1.50971,-4.50729 2.75,-6.5625 l -2.75,-6.15625 h -17.5625 -95.8125 c -30.20587,0 -62.5625,-32.38789 -62.5625,-62.59375 V 455.25 h -56.3125 c -0.429926,3.75357 -0.746882,9.9012 -1,16.40625 H 87.625 v -51.75 l -12.6875,16.75 h -25.375 z m 14,19.15625 h 22.25 v 5.0625 h -22.25 z m 0,8 h 22.25 v 5.0625 h -22.25 z m 0,8 h 22.25 v 5.0625 h -22.25 z m 167.25,0.1875 c 5.23736,18.12645 18.98318,35.71875 40.34375,35.71875 h 22.34375 c -0.86152,-1.62242 -1.4375,-4.10552 -1.4375,-8.15625 V 455.25 Z m 119.125,0 c 4.65116,15.03326 13.72555,31.08138 30.59375,33.15625 16.86616,-2.07462 25.91927,-18.12649 30.5625,-33.15625 z m 119.21875,0 v 27.5625 c 0,4.08187 -0.65382,6.55668 -1.59375,8.15625 h 9.9375 10.46875 c 21.36057,0 35.10638,-17.5923 40.34375,-35.71875 z m 123.03125,0 v 31.5625 c 0,30.20586 -32.35663,62.59375 -62.5625,62.59375 H 473.25 437.6875 423.25 397.71875 l -2.5625,5.6875 c 1.51656,2.43459 3.125,5.53901 3.125,7.875 0,0.0196 2.3e-4,0.0428 0,0.0625 1.18368,2.01509 2.1875,4.18832 2.1875,5.9375 0,4.41898 -6.28125,11.71875 -6.28125,11.71875 V 599 h 6.65625 C 407.58478,599 413,604.44647 413,611.1875 v 6.46875 c 0,6.74103 -5.41522,12.1875 -12.15625,12.1875 h -7.03125 v 90.3125 H 604.875 c 18.73722,0 33.84375,-40.89076 33.84375,-91.6875 V 494.625 c 0,-9.54721 -0.54143,-30.73317 -1.53125,-39.375 z m -528.625,7.8125 h 22.25 v 5.0625 h -22.25 z M 23,465.78125 c -2.494408,0 -4.5,1.21335 -4.5,2.75 v 2.875 c 0,1.53666 2.005592,2.75 4.5,2.75 h 5.09375 c 2.494407,0 4.5,-1.21334 4.5,-2.75 v -2.875 c 0,-1.53665 -2.005593,-2.75 -4.5,-2.75 z m 577.3125,0.25 11.09375,0.0312 5.5,9.625 -5.59375,9.5625 -11.09375,-0.0312 -5.5,-9.625 z M 50.90625,471.0625 h 22.25 v 5.0625 h -22.25 z m 63.34375,1.25 11.09375,0.0625 5.5,9.625 -5.59375,9.5625 -11.0625,-0.0312 -5.5,-9.625 5.5625,-9.59375 z M 23,476.15625 c -2.494408,0 -4.5,1.24461 -4.5,2.78125 v 2.84375 c 0,1.53665 2.005592,2.75 4.5,2.75 h 5.09375 c 2.494407,0 4.5,-1.21335 4.5,-2.75 v -2.84375 c 0,-1.53664 -2.005593,-2.78125 -4.5,-2.78125 z m 27.90625,2.90625 h 22.25 v 5.0625 h -22.25 z M 23,486.53125 c -2.494408,0 -4.5,1.2446 -4.5,2.78125 v 2.84375 c 0,1.53665 2.005592,2.75 4.5,2.75 h 5.09375 c 2.494407,0 4.5,-1.21335 4.5,-2.75 v -2.84375 c 0,-1.53664 -2.005593,-2.78125 -4.5,-2.78125 z m 27.90625,0.53125 h 22.25 v 5.0625 h -22.25 z m 0,8 h 22.25 v 5.0625 h -22.25 z m 0,8 h 22.25 v 5.0625 h -22.25 z m 0,8 h 22.25 v 5.0625 h -22.25 z m 0,16 v 5.0625 h 22.25 v -5.0625 z m 63.34375,5.25 11.09375,0.0625 5.5,9.625 -5.59375,9.5625 -11.0625,-0.0312 -5.5,-9.625 5.5625,-9.59375 z m -63.34375,2.75 v 5.0625 h 22.25 v -5.0625 z m 0,8 v 5.0625 h 22.25 v -5.0625 z m 0,8 v 5.0625 h 22.25 v -5.0625 z m 0,8 v 5.0625 h 22.25 v -5.0625 z m 236.1875,5.03125 11.09375,0.0625 5.5,9.625 -5.59375,9.5625 L 287,583.3125 l -5.5,-9.625 z m -236.1875,2.96875 v 5.0625 h 22.25 v -5.0625 z m 0,8 v 5.0625 h 22.25 v -5.0625 z m 0,8 v 5.0625 h 22.25 v -5.0625 z m 558.46875,3.3125 11.09375,0.0312 5.5,9.625 -5.59375,9.5625 -11.09375,-0.0312 -5.5,-9.625 z m -558.46875,4.6875 v 5.0625 h 22.25 v -5.0625 z m 63.34375,1.25 11.09375,0.0625 5.5,9.625 -5.59375,9.5625 -11.0625,-0.0312 -5.5,-9.625 5.5625,-9.59375 z m -63.34375,6.75 v 5.0625 h 22.25 v -5.0625 z m 0,8 h 22.25 v 5.0625 h -22.25 z m 0,8 h 22.25 v 5.0625 h -22.25 z m 406,4.28125 11.0625,0.0312 5.5,9.625 -5.59375,9.5625 -11.0625,-0.0312 -5.5,-9.625 z m -406,3.71875 h 22.25 v 5.0625 h -22.25 z m 0,8 h 22.25 v 5.0625 h -22.25 z m 0,8 h 22.25 v 5.0625 h -22.25 z m 142.21875,2.53125 11.09375,0.0312 5.5,9.625 -5.59375,9.59375 -11.0625,-0.0625 -5.5,-9.625 5.5625,-9.5625 z M 50.90625,647.0625 h 22.25 v 5.0625 h -22.25 z M 22.8125,652.75 c -2.381348,0 -4.3125,1.21335 -4.3125,2.75 v 2.84375 c 0,1.53666 1.931152,2.78125 4.3125,2.78125 h 4.84375 c 2.381348,0 4.3125,-1.24459 4.3125,-2.78125 V 655.5 c 0,-1.53665 -1.931152,-2.75 -4.3125,-2.75 z m 28.09375,2.3125 h 22.25 v 5.0625 h -22.25 z m 0,8 h 22.25 v 5.0625 h -22.25 z M 22.8125,663.125 c -2.381348,0 -4.3125,1.21336 -4.3125,2.75 v 2.84375 c 0,1.53665 1.931152,2.78125 4.3125,2.78125 h 4.84375 c 2.381348,0 4.3125,-1.2446 4.3125,-2.78125 V 665.875 c 0,-1.53664 -1.931152,-2.75 -4.3125,-2.75 z m 28.09375,7.9375 h 22.25 v 5.0625 h -22.25 z M 22.8125,673.5 c -2.381348,0 -4.3125,1.24461 -4.3125,2.78125 v 2.8125 c 0,1.53665 1.931152,2.78125 4.3125,2.78125 h 4.84375 c 2.381348,0 4.3125,-1.2446 4.3125,-2.78125 v -2.8125 c 0,-1.53664 -1.931152,-2.78125 -4.3125,-2.78125 z m 28.09375,5.5625 h 22.25 v 5.0625 h -22.25 z M 538.5,683.625 l 11.0625,0.0312 5.5,9.625 -5.5625,9.59375 -11.09375,-0.0625 -5.5,-9.625 5.59375,-9.5625 z m -487.59375,3.4375 h 22.25 v 5.0625 h -22.25 z m 0,8 h 22.25 v 5.0625 h -22.25 z m 0,8 h 22.25 v 5.0625 h -22.25 z m 0,8 h 22.25 v 5.0625 h -22.25 z m 0,8 h 22.25 v 5.0625 h -22.25 z"
           id="rect3065"
           style="fill:#000000;fill-opacity:1;stroke:none" /><path
           d="m 113.1875,284.96875 c -18.789128,0 -33.90625,15.14837 -33.90625,33.9375 v 19.5625 c 0,18.78913 15.117122,33.9375 33.90625,33.9375 h 506.59375 c 18.78913,0 33.90625,-15.14837 33.90625,-33.9375 v -19.5625 c 0,-18.78913 -15.11712,-33.9375 -33.90625,-33.9375 z m 7.0625,5.59375 h 492.46875 c 18.78913,0 33.90625,15.11712 33.90625,33.90625 v 8.4375 c 0,18.78913 -15.11712,33.90625 -33.90625,33.90625 H 120.25 c -18.78913,0 -33.90625,-15.11712 -33.90625,-33.90625 v -8.4375 c 0,-18.78913 15.11712,-33.90625 33.90625,-33.90625 z m 1.90625,5.96875 c -15.43607,0 -27.875,12.43893 -27.875,27.875 v 8.5625 c 0,15.43607 12.43893,27.875 27.875,27.875 h 12.5 V 353.25 H 117.8125 v -5.125 h 16.84375 V 341.25 H 111.0625 v -5.125 h 23.59375 v -4.875 h -30.375 v -5.125 h 30.375 V 321.25 H 111.0625 v -5.125 h 23.59375 V 309.25 H 117.8125 v -5.125 h 16.84375 v -7.59375 z m 25.375,0 V 304.125 H 585.4375 v -7.59375 z m 450.78125,0 v 7.59375 h 16.84375 v 5.125 H 598.3125 v 6.875 h 22.375 v 5.125 h -22.375 v 4.875 h 30.375 v 5.125 h -30.375 v 4.875 h 22.375 v 5.125 h -22.375 v 6.875 h 16.84375 v 5.125 H 598.3125 v 7.59375 h 12.5 c 15.43607,0 27.875,-12.43893 27.875,-27.875 v -8.5625 c 0,-15.43607 -12.43893,-27.875 -27.875,-27.875 z M 147.53125,309.25 v 38.875 H 585.4375 V 309.25 Z M 191.5,312 l 11.28125,13.84375 -6.34375,16.6875 -17.625,2.84375 -11.28125,-13.84375 6.34375,-16.6875 z m 120.875,0 11.28125,13.84375 -6.34375,16.6875 -17.625,2.84375 -11.28125,-13.84375 6.34375,-16.6875 z m 120.875,0 11.28125,13.84375 -6.34375,16.6875 -17.625,2.84375 -11.28125,-13.84375 6.34375,-16.6875 z m 120.875,0 11.3125,13.84375 -6.34375,16.6875 -17.625,2.84375 -11.28125,-13.84375 6.3125,-16.6875 z m -368.96875,4.5 c -6.73469,0 -12.21875,5.4528 -12.21875,12.1875 0,6.73469 5.48406,12.1875 12.21875,12.1875 6.73469,0 12.1875,-5.45281 12.1875,-12.1875 0,-6.7347 -5.45281,-12.1875 -12.1875,-12.1875 z m 120.875,0 c -6.73469,0 -12.1875,5.4528 -12.1875,12.1875 0,6.73469 5.45281,12.1875 12.1875,12.1875 6.7347,0 12.1875,-5.45281 12.1875,-12.1875 0,-6.7347 -5.4528,-12.1875 -12.1875,-12.1875 z m 120.875,0 c -6.73469,0 -12.15625,5.4528 -12.15625,12.1875 0,6.73469 5.42156,12.1875 12.15625,12.1875 6.7347,0 12.21875,-5.45281 12.21875,-12.1875 0,-6.7347 -5.48405,-12.1875 -12.21875,-12.1875 z m 120.875,0 c -6.73469,0 -12.15625,5.4528 -12.15625,12.1875 0,6.73469 5.42156,12.1875 12.15625,12.1875 C 554.51594,340.875 560,335.42219 560,328.6875 560,321.9528 554.51594,316.5 547.78125,316.5 Z m -362.625,4.46875 c 4.27078,0 7.75,3.44797 7.75,7.71875 0,4.27077 -3.47922,7.71875 -7.75,7.71875 -4.27078,0 -7.71875,-3.44798 -7.71875,-7.71875 0,-4.27078 3.44797,-7.71875 7.71875,-7.71875 z m 120.875,0 c 4.27078,0 7.75,3.44797 7.75,7.71875 0,4.27077 -3.47922,7.71875 -7.75,7.71875 -4.27077,0 -7.71875,-3.44798 -7.71875,-7.71875 0,-4.27078 3.44798,-7.71875 7.71875,-7.71875 z m 120.875,0 c 4.27078,0 7.75,3.44797 7.75,7.71875 0,4.27077 -3.47922,7.71875 -7.75,7.71875 -4.27077,0 -7.71875,-3.44798 -7.71875,-7.71875 0,-4.27078 3.44798,-7.71875 7.71875,-7.71875 z m 120.875,0 c 4.27078,0 7.75,3.44797 7.75,7.71875 0,4.27077 -3.47922,7.71875 -7.75,7.71875 -4.27078,0 -7.71875,-3.44798 -7.71875,-7.71875 0,-4.27078 3.44797,-7.71875 7.71875,-7.71875 z m -400.25,32.28125 v 7.59375 H 585.4375 V 353.25 Z"
           id="rect3849"
           style="fill:#000000;fill-opacity:1;stroke:none" /><path
           d="m 295.6875,222.59375 -37.75,27.625 -23.78125,4.5 -7.25,22 h 26.6875 32.75 v -20.1875 l 28.4375,-22.15625 h 5.03125 10.15625 l 9.90625,21.0625 v 7.75 H 300.25 v 13.53125 H 432.71875 V 263.1875 h -39.625 v -7.75 L 403,234.375 h 10.15625 5.03125 l 28.4375,22.15625 v 20.1875 h 32.75 26.6875 l -7.25,-22 -23.78125,-4.5 -37.75,-27.625 H 432.125 413.15625 403.09375 329.875 319.8125 300.84375 Z"
           id="rect3855"
           style="fill:#000000;fill-opacity:1;stroke:none" /><path
           d="m 159.9375,376.3125 v 12.8125 l -3.40625,1.28125 c -0.19718,-0.52641 -0.50551,-0.96413 -0.90625,-1.34375 -0.25889,-0.24525 -0.58418,-0.49459 -0.90625,-0.65625 -0.15667,-0.0796 -0.33116,-0.16222 -0.5,-0.21875 -0.16909,-0.0553 -0.35205,-0.0636 -0.53125,-0.0937 -0.009,-10e-4 -0.0223,0.001 -0.0312,0 -0.18873,-0.0302 -0.39616,-0.0625 -0.59375,-0.0625 -0.75989,0 -1.44945,0.20192 -2.03125,0.59375 -0.18912,0.12785 -0.36971,0.30888 -0.53125,0.46875 -0.3293,0.3293 -0.62885,0.71931 -0.8125,1.15625 -0.18624,0.43695 -0.25,0.93091 -0.25,1.4375 v 1.375 c -0.77509,0.34477 -1.48228,0.72685 -2.125,1.15625 -0.48816,0.32614 -0.95273,0.66175 -1.34375,1.0625 -0.12381,0.12689 -0.23087,0.27041 -0.34375,0.40625 -0.004,0.005 0.004,0.026 0,0.0312 -0.1122,0.13595 -0.24302,0.26066 -0.34375,0.40625 -0.004,0.006 0.004,0.0253 0,0.0312 -0.10006,0.1458 -0.22445,0.28135 -0.3125,0.4375 -0.004,0.007 0.004,0.0245 0,0.0312 -0.0872,0.15616 -0.17533,0.30158 -0.25,0.46875 -0.004,0.008 0.003,0.0236 0,0.0312 -0.38435,0.86982 -0.59375,1.90048 -0.59375,3.125 v 1.71875 c 0,2.26389 0.65839,3.62639 1.8125,4.46875 0.12815,0.0936 0.2664,0.20049 0.40625,0.28125 0.84263,0.49179 1.89084,0.73219 3.09375,0.875 v 1.0625 h -0.65625 v 4.75 l 2.34375,0.75 v -2.15625 c 0.0794,0.0511 0.16336,0.11408 0.25,0.15625 0.0452,0.022 0.0785,0.0424 0.125,0.0625 0.13583,0.0666 0.2617,0.10658 0.40625,0.15625 0.002,8.2e-4 -0.002,0.0304 0,0.0312 v 1.75 h 2.3125 v -1.75 c 0.28517,-0.0908 0.5317,-0.22056 0.78125,-0.375 v 2.125 l 2.3125,-0.75 v -4.75 h -0.5625 v -0.90625 h 59.40625 v 0.90625 h -0.5625 v 4.75 l 2.3125,0.75 v -2.125 c 0.24955,0.15444 0.49608,0.2842 0.78125,0.375 v 1.75 h 2.3125 v -1.75 -0.0312 c 0.14456,-0.0497 0.27042,-0.0897 0.40625,-0.15625 0.0465,-0.02 0.11109,-0.0405 0.15625,-0.0625 0.0866,-0.0421 0.13932,-0.10518 0.21875,-0.15625 v 2.15625 l 2.34375,-0.75 v -4.75 h -0.65625 v -1.0625 c 1.39269,-0.16534 2.60236,-0.50108 3.5,-1.15625 1.1533,-0.84236 1.8125,-2.20486 1.8125,-4.46875 v -1.71875 c 0,-2.21561 -0.68058,-3.78994 -1.84375,-4.96875 -0.39102,-0.40075 -0.82434,-0.73636 -1.3125,-1.0625 -0.64272,-0.4294 -1.38116,-0.81148 -2.15625,-1.15625 v -1.375 c 0,-0.50659 -0.0638,-1.00055 -0.25,-1.4375 -0.18365,-0.43694 -0.4832,-0.82695 -0.8125,-1.15625 -0.17041,-0.17041 -0.3608,-0.33488 -0.5625,-0.46875 -0.1887,-0.12603 -0.35117,-0.2225 -0.5625,-0.3125 -0.008,-0.003 -0.0231,0.003 -0.0312,0 -0.21161,-0.0884 -0.42671,-0.13937 -0.65625,-0.1875 -0.009,-0.002 -0.0225,0.002 -0.0312,0 -0.23902,-0.0483 -0.49671,-0.0937 -0.75,-0.0937 -0.5895,0 -1.13263,0.12785 -1.625,0.375 -0.32206,0.16166 -0.64737,0.411 -0.90625,0.65625 -0.40074,0.37962 -0.70907,0.81734 -0.90625,1.34375 l -3.40625,-1.28125 v -12.8125 h -53 -0.0312 z m 120,0 v 12.8125 l -3.40625,1.28125 c -0.19718,-0.52641 -0.50551,-0.96413 -0.90625,-1.34375 -0.25889,-0.24525 -0.55293,-0.49459 -0.875,-0.65625 -0.008,-0.004 -0.0236,0.004 -0.0312,0 -0.15667,-0.0796 -0.29991,-0.16222 -0.46875,-0.21875 -0.009,-0.003 -0.0227,0.003 -0.0312,0 -0.16909,-0.0553 -0.35205,-0.0636 -0.53125,-0.0937 -0.009,-10e-4 -0.0224,0.001 -0.0312,0 -0.18873,-0.0302 -0.36491,-0.0625 -0.5625,-0.0625 -0.75989,0 -1.4807,0.20192 -2.0625,0.59375 -0.18912,0.12785 -0.33846,0.30888 -0.5,0.46875 -0.3293,0.3293 -0.62885,0.71931 -0.8125,1.15625 -0.18624,0.43695 -0.28125,0.93091 -0.28125,1.4375 v 1.375 c -0.77509,0.34477 -1.48228,0.72685 -2.125,1.15625 -0.48816,0.32614 -0.92148,0.66175 -1.3125,1.0625 -0.12381,0.12689 -0.26212,0.27041 -0.375,0.40625 -0.004,0.005 0.004,0.026 0,0.0312 -0.1122,0.13595 -0.21177,0.26066 -0.3125,0.40625 -0.004,0.006 0.004,0.0253 0,0.0312 -0.10006,0.1458 -0.22445,0.28135 -0.3125,0.4375 -0.004,0.007 0.004,0.0245 0,0.0312 -0.0872,0.15616 -0.17533,0.30158 -0.25,0.46875 -0.004,0.008 0.003,0.0236 0,0.0312 -0.38435,0.86982 -0.625,1.90048 -0.625,3.125 v 1.71875 c 0,2.26389 0.68964,3.62639 1.84375,4.46875 0.12815,0.0936 0.23515,0.20049 0.375,0.28125 0.84263,0.49179 1.89084,0.73219 3.09375,0.875 v 1.0625 h -0.625 v 4.75 l 2.3125,0.75 v -2.15625 c 0.0794,0.0511 0.16336,0.11408 0.25,0.15625 0.0452,0.022 0.10979,0.0424 0.15625,0.0625 0.13583,0.0666 0.2617,0.10658 0.40625,0.15625 0.002,8.2e-4 -0.002,0.0304 0,0.0312 v 1.75 h 2.28125 v -1.75 c 0.28517,-0.0908 0.56295,-0.22056 0.8125,-0.375 v 2.125 l 2.28125,-0.75 v -4.75 h -0.53125 v -0.90625 h 59.40625 v 0.90625 h -0.5625 v 4.75 l 2.28125,0.75 v -2.125 c 0.24955,0.15444 0.52733,0.2842 0.8125,0.375 v 1.75 h 2.28125 v -1.75 -0.0312 c 0.14456,-0.0497 0.30167,-0.0897 0.4375,-0.15625 0.0465,-0.02 0.0798,-0.0405 0.125,-0.0625 0.0866,-0.0421 0.17057,-0.10518 0.25,-0.15625 v 2.15625 l 2.3125,-0.75 v -4.75 h -0.625 v -1.0625 c 1.39269,-0.16534 2.57111,-0.50108 3.46875,-1.15625 1.1533,-0.84236 1.84375,-2.20486 1.84375,-4.46875 v -1.71875 c 0,-2.21561 -0.68058,-3.78994 -1.84375,-4.96875 -0.39102,-0.40075 -0.85559,-0.73636 -1.34375,-1.0625 -0.64272,-0.4294 -1.34991,-0.81148 -2.125,-1.15625 v -1.375 c 0,-0.50659 -0.095,-1.00055 -0.28125,-1.4375 -0.18365,-0.43694 -0.45195,-0.82695 -0.78125,-1.15625 -0.17041,-0.17041 -0.3608,-0.33488 -0.5625,-0.46875 -0.1887,-0.12603 -0.38242,-0.2225 -0.59375,-0.3125 -0.008,-0.003 -0.0231,0.003 -0.0312,0 -0.21161,-0.0884 -0.42671,-0.13937 -0.65625,-0.1875 -0.009,-0.002 -0.0226,0.002 -0.0312,0 -0.23902,-0.0483 -0.49671,-0.0937 -0.75,-0.0937 -0.5895,0 -1.13263,0.12785 -1.625,0.375 -0.32206,0.16166 -0.61612,0.411 -0.875,0.65625 -0.40074,0.37962 -0.70907,0.81734 -0.90625,1.34375 L 333,389.125 v -12.8125 h -0.0312 -53 -0.0312 z m 120.03125,0 v 12.8125 l -3.40625,1.28125 c -0.19718,-0.52641 -0.50551,-0.96413 -0.90625,-1.34375 -0.25889,-0.24525 -0.55293,-0.49459 -0.875,-0.65625 -0.008,-0.004 -0.0236,0.004 -0.0312,0 -0.15667,-0.0796 -0.29991,-0.16222 -0.46875,-0.21875 -0.009,-0.003 -0.0227,0.003 -0.0312,0 -0.16909,-0.0553 -0.35205,-0.0636 -0.53125,-0.0937 -0.009,-10e-4 -0.0224,0.001 -0.0312,0 -0.18873,-0.0302 -0.39616,-0.0625 -0.59375,-0.0625 -0.75989,0 -1.44945,0.20192 -2.03125,0.59375 -0.18912,0.12785 -0.36971,0.30888 -0.53125,0.46875 -0.3293,0.3293 -0.5976,0.71931 -0.78125,1.15625 -0.18624,0.43695 -0.28125,0.93091 -0.28125,1.4375 v 1.375 c -0.77509,0.34477 -1.48228,0.72685 -2.125,1.15625 -0.48816,0.32614 -0.95273,0.66175 -1.34375,1.0625 -0.12381,0.12689 -0.23087,0.27041 -0.34375,0.40625 -0.004,0.005 0.004,0.026 0,0.0312 -0.1122,0.13595 -0.24302,0.26066 -0.34375,0.40625 -0.004,0.006 0.004,0.0253 0,0.0312 -0.10006,0.1458 -0.22445,0.28135 -0.3125,0.4375 -0.004,0.007 0.004,0.0245 0,0.0312 -0.0872,0.15616 -0.17533,0.30158 -0.25,0.46875 -0.004,0.008 0.003,0.0236 0,0.0312 -0.38435,0.86982 -0.59375,1.90048 -0.59375,3.125 v 1.71875 c 0,2.26389 0.65839,3.62639 1.8125,4.46875 0.12815,0.0936 0.2664,0.20049 0.40625,0.28125 0.84263,0.49179 1.89084,0.73219 3.09375,0.875 v 1.0625 h -0.65625 v 4.75 l 2.34375,0.75 v -2.15625 c 0.0794,0.0511 0.16336,0.11408 0.25,0.15625 0.0452,0.022 0.0785,0.0424 0.125,0.0625 0.13583,0.0666 0.2617,0.10658 0.40625,0.15625 0.002,8.2e-4 -0.002,0.0304 0,0.0312 v 1.75 h 2.3125 v -1.75 c 0.28517,-0.0908 0.5317,-0.22056 0.78125,-0.375 v 2.125 l 2.3125,-0.75 v -4.75 h -0.5625 v -0.90625 h 59.40625 v 0.90625 h -0.53125 v 4.75 l 2.28125,0.75 v -2.125 c 0.24955,0.15444 0.52733,0.2842 0.8125,0.375 v 1.75 h 2.28125 v -1.75 -0.0312 c 0.14456,-0.0497 0.27042,-0.0897 0.40625,-0.15625 0.0465,-0.02 0.11109,-0.0405 0.15625,-0.0625 0.0866,-0.0421 0.17057,-0.10518 0.25,-0.15625 v 2.15625 l 2.3125,-0.75 v -4.75 h -0.625 v -1.0625 c 1.39269,-0.16534 2.57111,-0.50108 3.46875,-1.15625 1.1533,-0.84236 1.8125,-2.20486 1.8125,-4.46875 v -1.71875 c 0,-2.21561 -0.68058,-3.78994 -1.84375,-4.96875 -0.39102,-0.40075 -0.82434,-0.73636 -1.3125,-1.0625 -0.64272,-0.4294 -1.34991,-0.81148 -2.125,-1.15625 v -1.375 c 0,-0.50659 -0.095,-1.00055 -0.28125,-1.4375 -0.18365,-0.43694 -0.4832,-0.82695 -0.8125,-1.15625 -0.17041,-0.17041 -0.3608,-0.33488 -0.5625,-0.46875 -0.1887,-0.12603 -0.35117,-0.2225 -0.5625,-0.3125 -0.008,-0.003 -0.0231,0.003 -0.0312,0 -0.21161,-0.0884 -0.42671,-0.13937 -0.65625,-0.1875 -0.009,-0.002 -0.0226,0.002 -0.0312,0 -0.23902,-0.0483 -0.49671,-0.0937 -0.75,-0.0937 -0.5895,0 -1.13263,0.12785 -1.625,0.375 -0.32206,0.16166 -0.64737,0.411 -0.90625,0.65625 -0.40074,0.37962 -0.70907,0.81734 -0.90625,1.34375 l -3.375,-1.28125 v -12.8125 h -0.0312 -53 -0.0312 z m 120,0 v 12.8125 l -3.375,1.28125 c -0.19718,-0.52641 -0.53676,-0.96413 -0.9375,-1.34375 -0.25889,-0.24525 -0.55293,-0.49459 -0.875,-0.65625 -0.008,-0.004 -0.0236,0.004 -0.0312,0 -0.15667,-0.0796 -0.29991,-0.16222 -0.46875,-0.21875 -0.009,-0.003 -0.0227,0.003 -0.0312,0 -0.16909,-0.0553 -0.35205,-0.0636 -0.53125,-0.0937 -0.18873,-0.0302 -0.39616,-0.0625 -0.59375,-0.0625 -0.75989,0 -1.44945,0.20192 -2.03125,0.59375 -0.18912,0.12785 -0.36971,0.30888 -0.53125,0.46875 -0.3293,0.3293 -0.62885,0.71931 -0.8125,1.15625 -0.18624,0.43695 -0.28125,0.93091 -0.28125,1.4375 v 1.375 c -0.77509,0.34477 -1.48228,0.72685 -2.125,1.15625 -0.48816,0.32614 -0.92148,0.66175 -1.3125,1.0625 -0.12381,0.12689 -0.26212,0.27041 -0.375,0.40625 -0.004,0.005 0.004,0.026 0,0.0312 -0.1122,0.13595 -0.21177,0.26066 -0.3125,0.40625 -0.004,0.006 0.004,0.0253 0,0.0312 -0.10006,0.1458 -0.22445,0.28135 -0.3125,0.4375 -0.004,0.007 0.004,0.0245 0,0.0312 -0.0872,0.15616 -0.17533,0.30158 -0.25,0.46875 -0.004,0.008 0.003,0.0236 0,0.0312 -0.38435,0.86982 -0.59375,1.90048 -0.59375,3.125 v 1.71875 c 0,2.26389 0.65839,3.62639 1.8125,4.46875 0.12815,0.0936 0.23515,0.20049 0.375,0.28125 0.84263,0.49179 1.89084,0.73219 3.09375,0.875 v 1.0625 h -0.625 v 4.75 l 2.3125,0.75 v -2.15625 c 0.0794,0.0511 0.16336,0.11408 0.25,0.15625 0.0452,0.022 0.10979,0.0424 0.15625,0.0625 0.13583,0.0666 0.2617,0.10658 0.40625,0.15625 0.002,8.2e-4 -0.002,0.0304 0,0.0312 v 1.75 h 2.28125 v -1.75 c 0.28517,-0.0908 0.56295,-0.22056 0.8125,-0.375 v 2.125 l 2.28125,-0.75 v -4.75 h -0.53125 v -0.90625 h 59.40625 v 0.90625 h -0.5625 v 4.75 l 2.3125,0.75 v -2.125 c 0.24955,0.15444 0.49608,0.2842 0.78125,0.375 v 1.75 h 2.3125 v -1.75 -0.0312 c 0.14456,-0.0497 0.27042,-0.0897 0.40625,-0.15625 0.0465,-0.02 0.0798,-0.0405 0.125,-0.0625 0.0866,-0.0421 0.17057,-0.10518 0.25,-0.15625 v 2.15625 l 2.3125,-0.75 v -4.75 h -0.625 v -1.0625 c 1.39269,-0.16534 2.60236,-0.50108 3.5,-1.15625 1.1533,-0.84236 1.8125,-2.20486 1.8125,-4.46875 v -1.71875 c 0,-2.21561 -0.68058,-3.78994 -1.84375,-4.96875 -0.39102,-0.40075 -0.85559,-0.73636 -1.34375,-1.0625 -0.64272,-0.4294 -1.34991,-0.81148 -2.125,-1.15625 v -1.375 c 0,-0.50659 -0.095,-1.00055 -0.28125,-1.4375 -0.18365,-0.43694 -0.45195,-0.82695 -0.78125,-1.15625 -0.17041,-0.17041 -0.3608,-0.33488 -0.5625,-0.46875 -0.1887,-0.12603 -0.38242,-0.2225 -0.59375,-0.3125 -0.008,-0.003 -0.0231,0.003 -0.0312,0 -0.21161,-0.0884 -0.42671,-0.13937 -0.65625,-0.1875 -0.009,-0.002 -0.0226,0.002 -0.0312,0 -0.23902,-0.0483 -0.46546,-0.0937 -0.71875,-0.0937 -0.5895,0 -1.16388,0.12785 -1.65625,0.375 -0.32206,0.16166 -0.61612,0.411 -0.875,0.65625 -0.40074,0.37962 -0.70907,0.81734 -0.90625,1.34375 l -3.40625,-1.28125 v -12.8125 h -0.0312 -53 -0.0312 z"
           id="rect3872"
           style="fill:#000000;fill-opacity:1;stroke:none" /><path
           d="m 340.85664,632.49187 v 141.26005 c 0,28.988 31.07312,60.06112 60.06112,60.06112 H 646.9629 V 787.3141 H 431.91706 c -28.98801,0 -44.56148,-15.57347 -44.56148,-44.56148 V 632.49187 Z"
           id="path3017"
           style="fill:#000000;fill-opacity:1;stroke:none" /><path
           d="m 351.75,104.78125 c -1.84295,0 -3.3125,1.50079 -3.3125,3.34375 v 6.625 c 0,1.84296 1.46954,3.3125 3.3125,3.3125 h 4.28125 c 1.84296,0 3.34375,-1.46954 3.34375,-3.3125 v -6.625 c 0,-1.84296 -1.50078,-3.34375 -3.34375,-3.34375 z m 12.59375,0 c -1.84296,0 -3.34375,1.50079 -3.34375,3.34375 v 6.625 c 0,1.84296 1.50079,3.3125 3.34375,3.3125 h 4.28125 c 1.84296,0 3.34375,-1.46954 3.34375,-3.3125 v -6.625 c 0,-1.84296 -1.50079,-3.34375 -3.34375,-3.34375 z m 12.59375,0 c -1.84296,0 -3.34375,1.50079 -3.34375,3.34375 v 6.625 c 0,1.84296 1.50079,3.3125 3.34375,3.3125 h 4.28125 c 1.84296,0 3.3125,-1.46954 3.3125,-3.3125 v -6.625 c 0,-1.84296 -1.46954,-3.34375 -3.3125,-3.34375 z m -10.46875,15.90625 c -77.53327,0 -140.375,2.30208 -140.375,11.5625 0,1.95929 -5.17092,5.90843 0,7.65625 H 506.875 c 5.17092,-1.74782 0,-5.69696 0,-7.65625 0,-9.26042 -62.87298,-11.5625 -140.40625,-11.5625 z M 225,144.375 v 51.5625 h 11.25 V 144.375 Z m 20.90625,0 v 51.5625 h 11.25 V 144.375 Z m 20.90625,0 v 51.5625 h 11.25 V 144.375 Z m 20.875,0 v 51.5625 h 11.28125 V 144.375 Z m 20.90625,0 v 51.5625 H 319.875 V 144.375 Z m 20.90625,0 v 51.5625 h 11.25 V 144.375 Z m 20.90625,0 v 51.5625 h 11.25 V 144.375 Z m 20.90625,0 v 51.5625 h 11.25 V 144.375 Z m 20.90625,0 v 51.5625 h 11.25 V 144.375 Z m 20.875,0 v 51.5625 H 424.375 V 144.375 Z m 20.90625,0 v 51.5625 h 11.28125 V 144.375 Z m 20.90625,0 v 51.5625 h 11.25 V 144.375 Z m 20.90625,0 v 51.5625 h 11.25 V 144.375 Z m 20.90625,0 v 51.5625 h 11.25 V 144.375 Z m -270.625,55.59375 c -5.17092,1.74782 0,5.69696 0,7.65625 0,9.26042 62.84173,11.5625 140.375,11.5625 77.53327,0 140.40625,-2.30208 140.40625,-11.5625 0,-1.95929 5.17092,-5.90843 0,-7.65625 z"
           id="path3029"
           style="fill:#000000;fill-opacity:1;stroke:none" /><path
           d="m 162.84375,410.5 v 73.25 c 0,28.988 31.0745,60.0625 60.0625,60.0625 h 91.9375 22.625 l 3.375,7.5625 c 0,0 -6,6.97794 -6,11.21875 0,4.24081 6,11.21875 6,11.21875 V 596.25 h 46.5 v -22.4375 c 0,0 6,-6.97794 6,-11.21875 0,-4.24081 -6,-11.21875 -6,-11.21875 l 3.375,-7.5625 h 30.25 13.875 34.125 41.9375 c 28.988,0 60.0625,-31.0745 60.0625,-60.0625 V 410.5 h -46.5 v 42.25 c 0,28.98801 -15.57449,44.5625 -44.5625,44.5625 h -10.9375 -26.125 c 1.37787,-4.48353 8.125,-0.63585 8.125,-13.5625 V 410.5 h -46.5 v 42.25 c 0,26.18894 -12.73221,39.42605 -36.5625,42.125 -23.83029,-2.69895 -36.5625,-15.93606 -36.5625,-42.125 V 410.5 h -46.5 v 73.25 c 0,13.52803 6.74713,9.07897 8.125,13.5625 h -39.0625 c -28.98801,0 -44.5625,-15.57449 -44.5625,-44.5625 V 410.5 Z"
           id="rect2998"
           style="fill:#000000;fill-opacity:1;stroke:none" /><path
           d="m 181.5625,726.15625 c 7.69255,22.96637 27.78908,39.28125 51.53125,39.28125 l 101.96875,3.34375 v -42.625 z m 212.71875,0 c 0,0 1.32262,25.07835 6.23348,39.0012 C 404.46529,776.35776 433,777.4375 433,777.4375 l 77.96875,-2 33.9375,-10 c 22.77494,-6.70742 43.8699,-16.31498 51.5625,-39.28125 z"
           id="rect3120"
           style="fill:#000000;fill-opacity:1;stroke:none" /><rect
           width="83.308716"
           height="27.851009"
           rx="12.167916"
           ry="12.167915"
           x="325.25189"
           y="600.4989"
           id="rect3130"
           style="fill:#000000;fill-opacity:1;stroke:none" /></g></g><path
       style="display:inline;fill:none;stroke:#000000;stroke-width:3;stroke-linecap:butt;stroke-linejoin:miter;stroke-miterlimit:4;stroke-dasharray:none;stroke-opacity:1;marker-end:url(#Arrow2Send-9)"
       d="M 202.07092,217.55126 C 469.32601,351.54094 469.32601,351.54094 469.32601,351.54094"
       id="path6475"
       transform="matrix(0.26458333,0,0,0.26458333,51.777723,11.339292)" /><text
       xml:space="preserve"
       style="display:inline;font-size:32px;fill:#000000"
       x="334.58762"
       y="130.84778"
       id="text628"
       transform="matrix(0.23524084,0.12110362,-0.12110362,0.23524084,51.777725,11.339291)"><tspan
         id="tspan626"
         x="334.58762"
         y="130.84778">150</tspan><tspan
         x="334.58762"
         y="170.84778"
         id="tspan630" /></text></g><g
     inkscape:groupmode="layer"
     id="layer12"
     inkscape:label="faktorkosten"
     style="display:inline"><g
       id="g3263"
       style="display:inline"
       transform="matrix(0.26458333,0,0,0.26458333,57.726161,8.6756544)"><g
         transform="matrix(0.09749647,0.046459,-0.046459,0.09749647,322.49396,129.83718)"
         id="layer1-45-5"><path
           d="m 514.29,450.93 c 0,46.55 -37.736,84.286 -84.286,84.286 -46.55,0 -84.286,-37.736 -84.286,-84.286 0,-46.55 37.736,-84.286 84.286,-84.286 46.55,0 84.286,37.736 84.286,84.286 z"
           transform="translate(61.429,148.57)"
           id="path3757-8-1"
           style="fill:#ffffff;stroke:#2c3a4e;stroke-width:20;stroke-linecap:round;stroke-miterlimit:0" /><rect
           width="505.70999"
           height="202.86"
           rx="0"
           ry="0"
           x="157.14"
           y="626.65002"
           id="rect2985-8-3"
           style="fill:#ffffff;stroke:#2c3a4e;stroke-width:20;stroke-linecap:square" /><path
           d="m 277.14,330.93 c 0,35.504 -28.782,64.286 -64.286,64.286 -35.504,0 -64.286,-28.782 -64.286,-64.286 0,-35.504 28.782,-64.286 64.286,-64.286 35.504,0 64.286,28.782 64.286,64.286 z"
           transform="translate(118.57,194)"
           id="path3755-9-7"
           style="fill:#ffffff;stroke:#2c3a4e;stroke-width:17;stroke-linecap:round;stroke-miterlimit:0" /><path
           d="m 442.86,272.36 c 0,26.825 -21.746,48.571 -48.571,48.571 -26.825,0 -48.571,-21.746 -48.571,-48.571 0,-26.825 21.746,-48.571 48.571,-48.571 26.825,0 48.571,21.746 48.571,48.571 z"
           transform="translate(56,174)"
           id="path3759-1-1"
           style="fill:#ffffff;stroke:#2c3a4e;stroke-width:14;stroke-linecap:round;stroke-miterlimit:0" /><text
           x="397.14285"
           y="797.21936"
           id="text3761-3-7"
           xml:space="preserve"
           style="font-size:12px;line-height:0%;font-family:sans-serif;text-align:center;letter-spacing:0px;word-spacing:0px;text-anchor:middle;fill:#000000"><tspan
             x="397.14285"
             y="797.21936"
             id="tspan3763-2-1"
             style="font-weight:bold;font-size:190px;font-family:FreeSans;fill:#2c3a4e">€</tspan></text></g><path
         style="fill:none;stroke:#000000;stroke-width:3;stroke-linecap:butt;stroke-linejoin:miter;stroke-miterlimit:4;stroke-dasharray:none;stroke-opacity:1;marker-start:url(#Arrow2Sstart-7);marker-end:none"
         d="M 216.5763,190.96285 C 483.83139,324.95253 483.83139,324.95253 483.83139,324.95253"
         id="path6475-1" /></g><text
       xml:space="preserve"
       style="font-size:32px;display:inline;fill:#000000"
       x="432.66086"
       y="55.379505"
       id="text636"
       transform="matrix(0.23524084,0.12110362,-0.12110362,0.23524084,58.240918,34.920445)"><tspan
         id="tspan632"
         x="432.66086"
         y="55.379505">150</tspan><tspan
         x="432.66086"
         y="95.379501"
         id="tspan634" /></text></g></svg>
